<svg xmlns="http://www.w3.org/2000/svg" xmlns:xlink="http://www.w3.org/1999/xlink" width="500" zoomAndPan="magnify" viewBox="0 0 375 374.999991" height="500" preserveAspectRatio="xMidYMid meet" version="1.0"><defs><clipPath id="48308db440"><path d="M 71 35 L 302 35 L 302 335 L 71 335 Z M 71 35 " clip-rule="nonzero"/></clipPath><clipPath id="69ef9dad26"><path d="M 159.128906 334.441406 L 71.082031 86.351562 L 213.152344 35.933594 L 301.199219 284.023438 Z M 159.128906 334.441406 " clip-rule="nonzero"/></clipPath><clipPath id="fc8764e2bd"><path d="M 41 3 L 172 3 L 172 282 L 41 282 Z M 41 3 " clip-rule="nonzero"/></clipPath><clipPath id="fdceae8509"><path d="M 88.128906 299.441406 L 0.0820312 51.351562 L 142.152344 0.933594 L 230.199219 249.023438 Z M 88.128906 299.441406 " clip-rule="nonzero"/></clipPath><clipPath id="ea96d1aa1c"><path d="M -0.0390625 51.011719 L 88.007812 299.097656 L 230.078125 248.679688 L 142.03125 0.589844 Z M -0.0390625 51.011719 " clip-rule="nonzero"/></clipPath><clipPath id="9b32be3d17"><rect x="0" width="231" y="0" height="300"/></clipPath></defs><rect x="-37.5" width="450" fill="#ffffff" y="-37.499999" height="449.999989" fill-opacity="1"/><rect x="-37.5" width="450" fill="#ffffff" y="-37.499999" height="449.999989" fill-opacity="1"/><g clip-path="url(#48308db440)"><g clip-path="url(#69ef9dad26)"><g transform="matrix(1, 0, 0, 1, 71, 35)"><g clip-path="url(#9b32be3d17)"><g clip-path="url(#fc8764e2bd)"><g clip-path="url(#fdceae8509)"><g clip-path="url(#ea96d1aa1c)"><path fill="#00467f" d="M 45.765625 179.058594 C 45.824219 178.40625 45.714844 177.863281 45.066406 175.886719 C 44.417969 173.863281 44.332031 173.433594 44.445312 172.980469 C 44.570312 172.5625 44.492188 172.195312 44.039062 170.921875 C 43.539062 169.511719 43.503906 169.316406 43.683594 168.859375 C 43.871094 168.417969 43.824219 168.144531 43.382812 166.660156 C 42.929688 165.199219 42.882812 164.875 43.054688 164.386719 C 43.207031 163.90625 43.175781 163.625 42.847656 162.75 C 42.527344 161.890625 42.496094 161.609375 42.652344 161.28125 C 42.816406 160.933594 42.777344 160.621094 42.402344 159.421875 C 41.984375 158.152344 41.96875 157.917969 42.171875 157.574219 C 42.371094 157.265625 42.355469 157.03125 42.128906 156.394531 C 41.898438 155.792969 41.878906 155.441406 42.015625 155.015625 C 42.144531 154.609375 42.113281 154.125 41.894531 153.367188 C 41.695312 152.566406 41.667969 152.25 41.84375 152.070312 C 42.003906 151.894531 41.980469 151.644531 41.757812 151.007812 C 41.507812 150.308594 41.5 150.089844 41.71875 149.703125 C 41.910156 149.328125 41.90625 149.074219 41.707031 148.460938 C 41.511719 147.914062 41.496094 147.578125 41.632812 147.289062 C 41.746094 147.027344 41.746094 146.550781 41.625 146.011719 C 41.5 145.476562 41.503906 144.996094 41.617188 144.785156 C 41.742188 144.519531 41.730469 144.195312 41.566406 143.726562 C 41.371094 143.179688 41.371094 142.941406 41.582031 142.574219 C 41.800781 142.175781 41.789062 141.957031 41.558594 141.300781 C 41.3125 140.605469 41.308594 140.453125 41.570312 140.136719 C 41.824219 139.839844 41.828125 139.652344 41.644531 139.136719 C 41.476562 138.714844 41.449219 138.300781 41.570312 137.964844 C 41.652344 137.664062 41.664062 137.265625 41.589844 137.054688 C 41.511719 136.84375 41.566406 136.464844 41.714844 136.207031 C 41.863281 135.898438 41.894531 135.5625 41.792969 135.273438 C 41.703125 135.015625 41.71875 134.632812 41.84375 134.402344 C 41.949219 134.175781 41.988281 133.699219 41.898438 133.355469 C 41.828125 133.003906 41.835938 132.507812 41.929688 132.234375 C 42.019531 131.964844 42.058594 131.488281 42 131.183594 C 41.941406 130.878906 42.007812 130.480469 42.125 130.335938 C 42.25 130.15625 42.285156 129.871094 42.199219 129.625 C 42.109375 129.367188 42.144531 128.996094 42.292969 128.6875 C 42.441406 128.378906 42.480469 128.007812 42.390625 127.765625 C 42.300781 127.507812 42.335938 127.21875 42.480469 127.050781 C 42.621094 126.863281 42.65625 126.578125 42.570312 126.335938 C 42.476562 126.078125 42.519531 125.71875 42.679688 125.441406 C 42.824219 125.132812 42.859375 124.796875 42.757812 124.507812 C 42.664062 124.25 42.683594 123.867188 42.808594 123.636719 C 42.914062 123.410156 42.984375 123.027344 42.933594 122.789062 C 42.890625 122.527344 42.960938 122.195312 43.097656 122.046875 C 43.253906 121.84375 43.273438 121.578125 43.160156 121.253906 C 43.023438 120.875 43.066406 120.65625 43.277344 120.390625 C 43.492188 120.128906 43.527344 119.894531 43.417969 119.574219 C 43.3125 119.285156 43.347656 118.949219 43.515625 118.652344 C 43.667969 118.359375 43.71875 118.015625 43.636719 117.789062 C 43.554688 117.5625 43.605469 117.21875 43.761719 116.941406 C 43.925781 116.625 43.957031 116.289062 43.855469 116 C 43.75 115.699219 43.777344 115.460938 43.945312 115.285156 C 44.09375 115.132812 44.140625 114.875 44.058594 114.648438 C 43.980469 114.421875 44.085938 113.851562 44.328125 113.238281 C 44.535156 112.667969 44.667969 112.074219 44.632812 111.933594 C 44.578125 111.78125 44.628906 111.386719 44.753906 111.070312 C 44.882812 110.75 44.914062 110.3125 44.835938 110.101562 C 44.746094 109.84375 44.804688 109.617188 45.011719 109.386719 C 45.1875 109.207031 45.273438 108.921875 45.214844 108.753906 C 45.160156 108.601562 45.210938 108.121094 45.320312 107.707031 C 45.429688 107.292969 45.59375 106.839844 45.683594 106.707031 C 45.773438 106.574219 45.832031 106.210938 45.789062 105.898438 C 45.753906 105.554688 45.894531 104.992188 46.171875 104.464844 C 46.496094 103.839844 46.578125 103.449219 46.476562 103.160156 C 46.382812 102.851562 46.46875 102.464844 46.78125 101.855469 C 47.050781 101.316406 47.183594 100.824219 47.113281 100.628906 C 47.039062 100.417969 47.242188 99.730469 47.601562 98.867188 C 47.9375 98.082031 48.195312 97.273438 48.167969 97.042969 C 48.136719 96.8125 48.375 96.046875 48.699219 95.316406 C 49.003906 94.59375 49.273438 93.761719 49.292969 93.480469 C 49.300781 93.207031 49.671875 92.1875 50.101562 91.230469 C 50.53125 90.273438 51.078125 88.832031 51.3125 88 C 51.59375 87.0625 53.167969 83.546875 55.546875 78.550781 C 57.636719 74.1875 59.464844 70.425781 59.597656 70.226562 C 59.746094 70.019531 60.019531 69.582031 60.214844 69.273438 C 60.398438 68.96875 60.613281 68.703125 60.6875 68.675781 C 60.753906 68.671875 61.34375 67.539062 62.015625 66.15625 C 62.746094 64.648438 63.339844 63.632812 63.523438 63.570312 C 63.691406 63.511719 64.152344 62.835938 64.554688 62.042969 C 64.945312 61.269531 65.574219 60.246094 65.964844 59.765625 C 66.339844 59.273438 66.789062 58.566406 66.96875 58.210938 C 67.132812 57.847656 67.414062 57.386719 67.585938 57.207031 C 67.761719 57.023438 68.066406 56.679688 68.253906 56.441406 C 68.449219 56.21875 68.820312 55.625 69.074219 55.140625 C 69.332031 54.65625 69.667969 54.210938 69.835938 54.152344 C 70.003906 54.09375 70.238281 53.839844 70.363281 53.574219 C 70.496094 53.320312 70.699219 52.925781 70.816406 52.679688 C 70.933594 52.429688 71.183594 52.121094 71.371094 51.984375 C 71.5625 51.847656 71.972656 51.3125 72.28125 50.789062 C 72.578125 50.277344 72.96875 49.792969 73.136719 49.734375 C 73.304688 49.675781 73.652344 49.210938 73.925781 48.6875 C 74.191406 48.128906 74.535156 47.703125 74.746094 47.625 C 74.929688 47.5625 75.152344 47.328125 75.242188 47.09375 C 75.316406 46.875 75.566406 46.515625 75.765625 46.308594 C 75.964844 46.101562 76.265625 45.789062 76.394531 45.625 C 76.542969 45.46875 76.761719 45.117188 76.894531 44.863281 C 77.019531 44.597656 77.316406 44.320312 77.558594 44.234375 C 77.832031 44.140625 78 43.941406 78.0625 43.628906 C 78.121094 43.320312 78.292969 43.121094 78.578125 43.019531 C 78.8125 42.953125 79.078125 42.6875 79.179688 42.449219 C 79.289062 42.222656 79.550781 41.855469 79.75 41.648438 C 79.949219 41.4375 80.25 41.128906 80.378906 40.960938 C 80.527344 40.808594 80.746094 40.457031 80.878906 40.203125 C 81.003906 39.9375 81.285156 39.667969 81.5 39.589844 C 81.710938 39.515625 81.976562 39.25 82.09375 38.953125 C 82.21875 38.636719 82.457031 38.394531 82.746094 38.292969 C 83.050781 38.1875 83.214844 38.011719 83.246094 37.773438 C 83.265625 37.546875 83.441406 37.363281 83.714844 37.265625 C 83.957031 37.179688 84.222656 36.914062 84.371094 36.605469 C 84.507812 36.320312 84.78125 36.035156 84.992188 35.957031 C 85.222656 35.878906 85.457031 35.625 85.585938 35.320312 C 85.714844 35.003906 85.953125 34.761719 86.242188 34.660156 C 86.546875 34.554688 86.710938 34.378906 86.742188 34.140625 C 86.769531 33.902344 86.9375 33.730469 87.242188 33.625 C 87.527344 33.519531 87.769531 33.28125 87.910156 32.957031 C 88.027344 32.660156 88.261719 32.40625 88.488281 32.324219 C 88.699219 32.25 88.957031 32.007812 89.0625 31.78125 C 89.171875 31.554688 89.441406 31.253906 89.683594 31.117188 C 89.925781 30.980469 90.199219 30.695312 90.3125 30.484375 C 90.425781 30.273438 90.804688 29.949219 91.167969 29.769531 C 91.527344 29.574219 91.90625 29.25 92.011719 29.007812 C 92.117188 28.78125 92.378906 28.554688 92.589844 28.476562 C 92.804688 28.402344 93.078125 28.117188 93.214844 27.828125 C 93.382812 27.480469 93.625 27.257812 93.960938 27.136719 C 94.292969 27.019531 94.460938 26.859375 94.488281 26.609375 C 94.53125 26.335938 94.726562 26.164062 95.3125 25.890625 C 95.8125 25.660156 96.140625 25.390625 96.269531 25.121094 C 96.378906 24.894531 96.632812 24.652344 96.84375 24.574219 C 97.058594 24.5 97.347656 24.210938 97.515625 23.910156 C 97.726562 23.496094 97.941406 23.332031 98.546875 23.117188 C 99.125 22.914062 99.324219 22.757812 99.402344 22.488281 C 99.453125 22.25 99.730469 22.015625 100.285156 21.75 C 100.792969 21.5 101.148438 21.203125 101.277344 20.9375 C 101.429688 20.640625 101.667969 20.453125 102.230469 20.253906 C 102.8125 20.066406 103.054688 19.878906 103.222656 19.527344 C 103.402344 19.171875 103.703125 18.964844 104.441406 18.632812 C 105.207031 18.292969 105.480469 18.09375 105.65625 17.722656 C 105.824219 17.375 106.039062 17.210938 106.675781 16.984375 C 107.289062 16.785156 107.519531 16.617188 107.660156 16.296875 C 107.828125 15.945312 108.035156 15.804688 108.917969 15.507812 C 109.859375 15.171875 110.015625 15.082031 110.226562 14.617188 C 110.445312 14.128906 110.5625 14.070312 111.882812 13.601562 C 113.140625 13.152344 113.296875 13.0625 113.476562 12.660156 C 113.636719 12.242188 113.824219 12.140625 115.488281 11.484375 C 117.003906 10.894531 117.351562 10.71875 117.53125 10.398438 C 117.710938 10.046875 118.109375 9.871094 121.117188 8.714844 C 122.984375 8.003906 124.742188 7.328125 125.03125 7.226562 C 125.316406 7.109375 125.679688 6.839844 125.84375 6.628906 C 126.058594 6.363281 126.519531 6.117188 127.503906 5.765625 C 128.613281 5.375 128.976562 5.296875 129.425781 5.410156 C 129.917969 5.542969 130.277344 5.449219 132.84375 4.589844 C 135.542969 3.667969 135.730469 3.617188 135.96875 3.855469 C 136.175781 4.054688 136.378906 4.050781 137.0625 3.808594 C 137.789062 3.550781 137.941406 3.546875 138.257812 3.8125 C 138.527344 4.042969 138.742188 4.066406 139.152344 3.921875 C 139.53125 3.789062 139.761719 3.808594 139.941406 3.984375 C 140.078125 4.125 140.484375 4.253906 140.8125 4.273438 C 141.222656 4.296875 141.53125 4.445312 141.738281 4.714844 C 141.90625 4.945312 142.210938 5.125 142.410156 5.160156 C 142.679688 5.199219 142.820312 5.355469 143 5.855469 C 143.125 6.203125 143.460938 6.71875 143.746094 6.992188 C 144.03125 7.265625 144.3125 7.628906 144.371094 7.792969 C 144.445312 7.957031 144.390625 8.28125 144.28125 8.507812 C 144.152344 8.761719 144.136719 9.109375 144.265625 9.421875 C 144.371094 9.726562 144.355469 9.96875 144.238281 10.0625 C 144.132812 10.152344 143.398438 10.445312 142.640625 10.714844 C 141.449219 11.121094 141.183594 11.285156 140.925781 11.664062 C 140.742188 11.917969 140.308594 12.277344 139.933594 12.480469 C 139.539062 12.671875 139.117188 13.023438 138.960938 13.25 C 138.808594 13.492188 138.441406 13.761719 138.117188 13.859375 C 137.691406 14.007812 137.488281 14.203125 137.339844 14.5625 C 137.164062 14.980469 136.988281 15.113281 136.367188 15.332031 C 135.820312 15.527344 135.566406 15.722656 135.414062 16.015625 C 135.296875 16.261719 134.910156 16.570312 134.414062 16.8125 C 133.980469 17.035156 133.5 17.410156 133.339844 17.636719 C 133.171875 17.886719 132.832031 18.125 132.453125 18.261719 C 132.042969 18.40625 131.730469 18.636719 131.507812 18.972656 C 131.304688 19.265625 130.863281 19.609375 130.367188 19.855469 C 129.851562 20.089844 129.441406 20.421875 129.230469 20.738281 C 129.042969 21.027344 128.683594 21.324219 128.40625 21.40625 C 128.058594 21.53125 127.894531 21.691406 127.863281 21.941406 C 127.828125 22.226562 127.667969 22.351562 127.058594 22.566406 C 126.4375 22.789062 126.265625 22.933594 126.101562 23.335938 C 125.9375 23.734375 125.75 23.886719 125.25 24.0625 C 124.777344 24.230469 124.511719 24.445312 124.277344 24.835938 C 124.09375 25.140625 123.757812 25.449219 123.5 25.539062 C 123.210938 25.640625 123.039062 25.824219 123.003906 26.023438 C 122.984375 26.199219 122.726562 26.445312 122.417969 26.625 C 122.097656 26.789062 121.707031 27.132812 121.519531 27.421875 C 121.300781 27.71875 120.96875 27.992188 120.617188 28.101562 C 120.160156 28.261719 120.019531 28.398438 119.945312 28.765625 C 119.882812 29.113281 119.730469 29.269531 119.367188 29.398438 C 119.050781 29.511719 118.796875 29.71875 118.71875 29.96875 C 118.625 30.191406 118.398438 30.425781 118.21875 30.488281 C 118.015625 30.542969 117.71875 30.820312 117.53125 31.109375 C 117.339844 31.382812 116.925781 31.714844 116.605469 31.867188 C 116.226562 32.050781 115.929688 32.328125 115.773438 32.65625 C 115.621094 32.949219 115.355469 33.214844 115.113281 33.300781 C 114.855469 33.390625 114.65625 33.597656 114.613281 33.820312 C 114.558594 34.042969 114.359375 34.25 114.117188 34.335938 C 113.871094 34.425781 113.550781 34.726562 113.371094 35.03125 C 113.1875 35.332031 112.898438 35.625 112.714844 35.6875 C 112.511719 35.742188 112.277344 35.996094 112.171875 36.222656 C 112.0625 36.449219 111.75 36.765625 111.476562 36.914062 C 111.210938 37.078125 110.851562 37.375 110.6875 37.585938 C 110.523438 37.800781 110.257812 38.097656 110.082031 38.28125 C 109.90625 38.460938 109.6875 38.710938 109.597656 38.84375 C 109.503906 38.964844 109.21875 39.269531 108.972656 39.496094 C 108.734375 39.734375 108.304688 40.160156 108.035156 40.460938 C 107.761719 40.746094 107.527344 41.101562 107.503906 41.230469 C 107.472656 41.378906 107.292969 41.542969 107.078125 41.617188 C 106.867188 41.695312 106.5625 41.992188 106.378906 42.292969 C 106.195312 42.597656 105.921875 42.882812 105.753906 42.941406 C 105.589844 43.003906 105.359375 43.273438 105.253906 43.550781 C 105.121094 43.851562 104.886719 44.105469 104.660156 44.1875 C 104.429688 44.269531 104.195312 44.523438 104.082031 44.820312 C 103.9375 45.144531 103.699219 45.382812 103.410156 45.484375 C 103.121094 45.585938 102.949219 45.769531 102.914062 45.96875 C 102.886719 46.132812 102.664062 46.414062 102.414062 46.574219 C 102.152344 46.75 101.734375 47.257812 101.46875 47.710938 C 101.207031 48.179688 100.871094 48.589844 100.742188 48.652344 C 100.589844 48.707031 100.332031 48.988281 100.148438 49.289062 C 99.964844 49.59375 99.660156 49.890625 99.449219 49.964844 C 99.207031 50.050781 99.042969 50.265625 98.976562 50.5625 C 98.917969 50.835938 98.746094 51.070312 98.546875 51.140625 C 98.347656 51.195312 97.996094 51.558594 97.757812 51.949219 C 97.515625 52.324219 97.304688 52.742188 97.289062 52.886719 C 97.257812 53.035156 97.0625 53.207031 96.832031 53.285156 C 96.574219 53.378906 96.308594 53.644531 96.164062 53.953125 C 96.027344 54.238281 95.847656 54.507812 95.773438 54.535156 C 95.695312 54.5625 95.335938 54.945312 95.015625 55.382812 C 94.675781 55.828125 94.421875 56.261719 94.453125 56.351562 C 94.484375 56.445312 94.324219 56.570312 94.097656 56.648438 C 93.789062 56.742188 93.53125 57.074219 93.199219 57.738281 C 92.925781 58.261719 92.542969 58.773438 92.332031 58.898438 C 92.105469 59.03125 91.726562 59.558594 91.464844 60.0625 C 91.195312 60.601562 90.824219 61.058594 90.644531 61.121094 C 90.429688 61.199219 90.109375 61.636719 89.855469 62.171875 C 89.589844 62.726562 89.277344 63.144531 89.078125 63.214844 C 88.851562 63.296875 88.558594 63.722656 88.285156 64.351562 C 87.976562 65.023438 87.699219 65.394531 87.441406 65.488281 C 87.21875 65.582031 86.941406 65.90625 86.730469 66.371094 C 86.546875 66.761719 86.175781 67.40625 85.914062 67.773438 C 85.632812 68.144531 85.339844 68.472656 85.265625 68.5 C 85.1875 68.527344 84.867188 69.015625 84.585938 69.574219 C 84.296875 70.15625 83.894531 70.710938 83.699219 70.832031 C 83.5 70.9375 83.058594 71.621094 82.699219 72.347656 C 82.335938 73.058594 81.871094 73.90625 81.652344 74.207031 C 81.433594 74.507812 81.140625 74.832031 81.023438 74.941406 C 80.902344 75.035156 80.386719 75.9375 79.90625 76.945312 C 79.40625 77.941406 78.824219 78.953125 78.621094 79.195312 C 78.394531 79.429688 78.140625 79.722656 78.023438 79.867188 C 77.917969 80.007812 77.515625 80.75 77.132812 81.550781 C 76.75 82.351562 76.117188 83.601562 75.734375 84.355469 C 75.367188 85.101562 74.746094 86.140625 74.375 86.632812 C 73.992188 87.144531 72.777344 89.503906 71.652344 91.867188 C 70.503906 94.308594 69.625 96.363281 69.65625 96.59375 C 69.671875 96.828125 69.492188 97.4375 69.25 97.949219 C 69.003906 98.464844 68.203125 100.203125 67.480469 101.773438 C 66.671875 103.546875 66.191406 104.792969 66.257812 104.976562 C 66.316406 105.140625 66.164062 105.726562 65.914062 106.277344 C 65.652344 106.832031 65.285156 107.679688 65.066406 108.167969 C 64.855469 108.632812 64.707031 109.269531 64.730469 109.53125 C 64.742188 109.800781 64.578125 110.40625 64.347656 110.863281 C 64.132812 111.316406 63.890625 111.933594 63.847656 112.238281 C 63.796875 112.53125 63.734375 112.980469 63.71875 113.222656 C 63.6875 113.476562 63.570312 113.824219 63.460938 114 C 63.339844 114.179688 63.207031 114.53125 63.160156 114.789062 C 63.117188 115.042969 63.050781 115.441406 63.019531 115.691406 C 62.992188 115.941406 62.867188 116.414062 62.742188 116.730469 C 62.613281 117.050781 62.484375 117.695312 62.433594 118.175781 C 62.390625 118.632812 62.242188 119.128906 62.101562 119.265625 C 61.9375 119.425781 61.90625 119.675781 62.003906 119.949219 C 62.101562 120.222656 62.015625 120.664062 61.722656 121.332031 C 61.484375 121.859375 61.34375 122.421875 61.402344 122.589844 C 61.460938 122.757812 61.417969 123.164062 61.292969 123.484375 C 61.164062 123.800781 61.113281 124.179688 61.15625 124.300781 C 61.199219 124.421875 61.144531 124.800781 61.019531 125.117188 C 60.890625 125.4375 60.816406 125.753906 60.84375 125.828125 C 60.878906 125.886719 60.792969 126.121094 60.683594 126.347656 C 60.578125 126.574219 60.515625 126.886719 60.585938 127.03125 C 60.636719 127.167969 60.566406 127.5 60.421875 127.773438 C 60.289062 128.023438 60.234375 128.402344 60.3125 128.617188 C 60.386719 128.828125 60.324219 129.226562 60.1875 129.515625 C 60.050781 129.800781 59.984375 130.199219 60.0625 130.414062 C 60.136719 130.625 60.082031 131.003906 59.957031 131.269531 C 59.808594 131.527344 59.746094 131.890625 59.816406 132.089844 C 59.898438 132.265625 59.847656 132.605469 59.742188 132.832031 C 59.632812 133.058594 59.605469 133.410156 59.679688 133.625 C 59.753906 133.835938 59.707031 134.230469 59.570312 134.515625 C 59.433594 134.804688 59.382812 135.199219 59.460938 135.410156 C 59.539062 135.636719 59.492188 135.980469 59.339844 136.273438 C 59.179688 136.550781 59.132812 136.894531 59.226562 137.167969 C 59.324219 137.390625 59.304688 137.722656 59.207031 137.925781 C 59.105469 138.117188 59.066406 138.539062 59.140625 138.890625 C 59.207031 139.226562 59.191406 139.761719 59.082031 140.074219 C 58.984375 140.378906 58.984375 140.808594 59.058594 141.019531 C 59.132812 141.234375 59.101562 141.621094 58.949219 141.914062 C 58.773438 142.285156 58.757812 142.582031 58.890625 142.960938 C 59 143.261719 59.019531 143.699219 58.925781 143.972656 C 58.851562 144.238281 58.8125 144.714844 58.871094 145.019531 C 58.925781 145.320312 58.878906 145.765625 58.773438 145.992188 C 58.648438 146.222656 58.636719 146.570312 58.710938 146.78125 C 58.785156 146.996094 58.785156 147.421875 58.6875 147.730469 C 58.578125 148.042969 58.566406 148.59375 58.65625 148.9375 C 58.730469 149.289062 58.738281 149.746094 58.644531 149.96875 C 58.550781 150.1875 58.542969 150.6875 58.632812 151.082031 C 58.703125 151.484375 58.691406 152.019531 58.597656 152.289062 C 58.507812 152.5625 58.519531 152.984375 58.605469 153.226562 C 58.691406 153.46875 58.707031 153.945312 58.59375 154.257812 C 58.503906 154.578125 58.5 155.144531 58.605469 155.535156 C 58.695312 155.929688 58.714844 156.417969 58.636719 156.632812 C 58.558594 156.851562 58.5625 157.394531 58.632812 157.832031 C 58.722656 158.277344 58.734375 158.839844 58.671875 159.097656 C 58.613281 159.359375 58.65625 159.960938 58.769531 160.429688 C 58.886719 160.953125 58.902344 161.527344 58.804688 161.871094 C 58.664062 162.296875 58.691406 162.664062 58.914062 163.285156 C 59.105469 163.832031 59.171875 164.304688 59.097656 164.671875 C 59.015625 164.976562 59.070312 165.65625 59.203125 166.171875 C 59.363281 166.816406 59.359375 167.246094 59.238281 167.527344 C 59.070312 167.878906 59.097656 168.140625 59.429688 169.082031 C 59.765625 170.023438 59.8125 170.347656 59.6875 170.957031 C 59.542969 171.605469 59.585938 171.878906 60.023438 173.109375 C 60.46875 174.371094 60.503906 174.5625 60.300781 175.097656 C 60.085938 175.648438 60.121094 175.792969 60.746094 177.550781 C 61.273438 179.089844 61.367188 179.5 61.277344 179.960938 C 61.171875 180.441406 61.316406 180.988281 62.339844 184.164062 C 63.421875 187.453125 63.511719 187.847656 63.371094 188.324219 C 63.222656 188.820312 63.289062 189.054688 64.6875 192.847656 C 65.957031 196.328125 66.21875 196.917969 66.648438 197.363281 C 67.054688 197.78125 67.335938 198.433594 68.425781 201.261719 C 69.5625 204.273438 69.757812 204.683594 70.152344 204.96875 C 70.496094 205.222656 70.683594 205.550781 71.113281 206.765625 C 71.578125 208.070312 71.707031 208.296875 72.230469 208.710938 C 72.710938 209.101562 72.878906 209.382812 73.214844 210.324219 C 73.574219 211.34375 73.679688 211.492188 74.148438 211.703125 C 74.578125 211.910156 74.710938 212.085938 74.957031 212.78125 C 75.167969 213.425781 75.339844 213.671875 75.648438 213.816406 C 75.925781 213.949219 76.167969 214.261719 76.375 214.757812 C 76.578125 215.230469 76.886719 215.617188 77.203125 215.832031 C 77.515625 216.042969 77.789062 216.375 77.902344 216.746094 C 78.03125 217.109375 78.246094 217.375 78.511719 217.5 C 78.757812 217.617188 79.078125 217.984375 79.273438 218.394531 C 79.5 218.84375 79.796875 219.148438 80.105469 219.292969 C 80.386719 219.414062 80.648438 219.664062 80.738281 219.921875 C 80.804688 220.15625 81.070312 220.421875 81.296875 220.527344 C 81.519531 220.636719 81.78125 220.886719 81.839844 221.105469 C 81.917969 221.316406 82.238281 221.699219 82.570312 221.957031 C 82.886719 222.21875 83.246094 222.65625 83.34375 222.929688 C 83.46875 223.277344 83.644531 223.4375 83.976562 223.507812 C 84.308594 223.578125 84.480469 223.722656 84.613281 224.101562 C 84.726562 224.425781 84.910156 224.617188 85.160156 224.675781 C 85.378906 224.71875 85.585938 224.917969 85.679688 225.175781 C 85.765625 225.417969 86.03125 225.683594 86.335938 225.832031 C 86.625 225.96875 86.90625 226.226562 86.976562 226.425781 C 87.046875 226.621094 87.492188 226.960938 88.035156 227.246094 C 88.589844 227.507812 89.019531 227.851562 89.09375 228.0625 C 89.160156 228.246094 89.433594 228.492188 89.71875 228.613281 C 90.007812 228.714844 90.273438 228.980469 90.351562 229.191406 C 90.441406 229.449219 90.773438 229.707031 91.398438 229.980469 C 91.902344 230.195312 92.4375 230.5 92.597656 230.664062 C 92.753906 230.816406 93.066406 231.113281 93.292969 231.324219 C 93.523438 231.535156 94.082031 231.863281 94.53125 232.066406 C 94.976562 232.265625 95.582031 232.613281 95.871094 232.855469 C 96.160156 233.09375 96.507812 233.394531 96.640625 233.535156 C 96.777344 233.675781 99.554688 235.050781 102.824219 236.605469 C 106.664062 238.421875 108.902344 239.386719 109.160156 239.34375 C 109.390625 239.316406 110.363281 239.652344 111.40625 240.136719 C 112.425781 240.597656 113.445312 240.96875 113.710938 240.945312 C 113.957031 240.921875 114.578125 241.078125 115.101562 241.304688 C 115.621094 241.511719 116.230469 241.792969 116.476562 241.910156 C 116.710938 242.03125 117.066406 242.074219 117.285156 242.015625 C 117.527344 241.929688 117.957031 242.035156 118.496094 242.304688 C 118.976562 242.542969 119.691406 242.820312 120.089844 242.933594 C 120.503906 243.042969 120.9375 243.113281 121.042969 243.074219 C 121.136719 243.042969 121.652344 243.199219 122.195312 243.433594 C 122.722656 243.65625 123.332031 243.835938 123.554688 243.789062 C 123.78125 243.757812 124.371094 243.925781 124.886719 244.171875 C 125.527344 244.488281 125.9375 244.582031 126.242188 244.476562 C 126.46875 244.394531 126.785156 244.417969 126.945312 244.535156 C 127.085938 244.636719 127.554688 244.8125 127.96875 244.921875 C 128.386719 245.03125 128.851562 245.089844 129 245.035156 C 129.136719 244.984375 129.425781 245.070312 129.621094 245.242188 C 129.839844 245.421875 130.121094 245.492188 130.332031 245.414062 C 130.511719 245.335938 130.9375 245.390625 131.257812 245.515625 C 131.574219 245.640625 132.03125 245.820312 132.257812 245.929688 C 132.484375 246.035156 132.820312 246.070312 133.019531 246 C 133.214844 245.929688 133.800781 246.082031 134.425781 246.355469 C 135.039062 246.632812 135.621094 246.785156 135.832031 246.710938 C 136.015625 246.644531 136.574219 246.773438 137.136719 247.015625 C 137.667969 247.253906 138.230469 247.398438 138.398438 247.339844 C 138.5625 247.277344 139.070312 247.40625 139.523438 247.621094 C 139.976562 247.835938 140.839844 248.109375 141.445312 248.222656 C 142.046875 248.332031 143.367188 248.820312 144.394531 249.3125 C 146.058594 250.105469 146.25 250.15625 146.351562 249.863281 C 146.402344 249.675781 146.390625 249.40625 146.34375 249.269531 C 146.289062 249.117188 146.015625 248.871094 145.722656 248.71875 C 145.300781 248.492188 145.121094 248.285156 144.949219 247.746094 C 144.777344 247.261719 144.566406 246.960938 144.226562 246.722656 C 143.9375 246.535156 143.550781 246.074219 143.339844 245.667969 C 143.148438 245.277344 142.730469 244.722656 142.429688 244.453125 C 142.105469 244.160156 141.800781 243.6875 141.65625 243.277344 C 141.492188 242.769531 141.308594 242.546875 141 242.398438 C 140.675781 242.257812 140.511719 242.027344 140.320312 241.445312 C 140.101562 240.820312 139.96875 240.644531 139.554688 240.484375 C 139.132812 240.3125 139 240.136719 138.769531 239.484375 C 138.554688 238.875 138.367188 238.636719 138.058594 238.488281 C 137.75 238.339844 137.515625 238.015625 137.140625 237.207031 C 136.769531 236.398438 136.570312 236.128906 136.335938 236.089844 C 136.085938 236.0625 135.945312 235.855469 135.71875 235.21875 C 135.472656 234.519531 135.339844 234.34375 134.925781 234.183594 C 134.503906 234.007812 134.371094 233.832031 134.152344 233.210938 C 133.949219 232.632812 133.757812 232.394531 133.410156 232.226562 C 133.050781 232.03125 132.851562 231.757812 132.46875 230.871094 C 132.09375 230.011719 131.914062 229.75 131.679688 229.714844 C 131.429688 229.683594 131.289062 229.476562 131.050781 228.808594 C 130.816406 228.140625 130.59375 227.808594 130.144531 227.457031 C 129.828125 227.191406 129.46875 226.757812 129.378906 226.496094 C 129.257812 226.164062 129.070312 225.972656 128.832031 225.921875 C 128.585938 225.855469 128.398438 225.667969 128.296875 225.378906 C 128.195312 225.089844 127.949219 224.835938 127.621094 224.679688 C 127.214844 224.496094 127.039062 224.285156 126.863281 223.75 C 126.6875 223.25 126.5 223.007812 126.148438 222.84375 C 125.726562 222.617188 125.636719 222.460938 125.105469 220.90625 C 124.570312 219.402344 124.53125 219.144531 124.6875 218.628906 C 124.777344 218.304688 124.796875 217.921875 124.738281 217.757812 C 124.679688 217.589844 124.738281 217.226562 124.875 216.9375 C 125.011719 216.652344 125.070312 216.289062 125.011719 216.121094 C 124.9375 215.960938 125.035156 215.464844 125.21875 215.023438 C 125.523438 214.246094 125.566406 214.214844 126.261719 214.105469 C 126.691406 214.019531 127.207031 214.078125 127.546875 214.214844 C 127.847656 214.34375 128.234375 214.515625 128.394531 214.578125 C 128.558594 214.65625 128.9375 214.710938 129.207031 214.699219 C 129.546875 214.699219 129.800781 214.832031 129.972656 215.078125 C 130.121094 215.300781 130.871094 215.785156 131.667969 216.152344 C 132.753906 216.652344 133.160156 216.9375 133.273438 217.253906 C 133.371094 217.527344 133.566406 217.699219 133.878906 217.757812 C 134.210938 217.828125 134.386719 217.988281 134.5 218.304688 C 134.625 218.65625 134.910156 218.878906 135.691406 219.25 C 136.265625 219.523438 136.746094 219.816406 136.773438 219.890625 C 136.800781 219.96875 137.058594 220.21875 137.351562 220.421875 C 137.628906 220.613281 138.074219 220.917969 138.359375 221.089844 C 138.621094 221.253906 138.898438 221.546875 138.972656 221.757812 C 139.054688 221.988281 139.25 222.15625 139.464844 222.183594 C 139.703125 222.210938 139.875 222.378906 139.984375 222.683594 C 140.085938 222.972656 140.324219 223.210938 140.648438 223.351562 C 140.960938 223.464844 141.199219 223.703125 141.296875 223.976562 C 141.382812 224.21875 141.589844 224.417969 141.800781 224.480469 C 141.984375 224.519531 142.347656 224.765625 142.585938 225.003906 C 142.808594 225.25 143.140625 225.558594 143.308594 225.691406 C 143.472656 225.820312 143.851562 226.113281 144.132812 226.335938 C 144.433594 226.554688 144.710938 226.847656 144.753906 226.96875 C 144.78125 227.097656 145.019531 227.285156 145.246094 227.394531 C 145.472656 227.5 145.714844 227.707031 145.753906 227.863281 C 145.800781 228 146.082031 228.257812 146.386719 228.441406 C 146.691406 228.625 146.984375 228.929688 147.0625 229.140625 C 147.148438 229.382812 147.359375 229.546875 147.65625 229.613281 C 148.003906 229.679688 148.160156 229.828125 148.304688 230.238281 C 148.449219 230.648438 148.605469 230.796875 148.953125 230.863281 C 149.265625 230.921875 149.460938 231.089844 149.5625 231.378906 C 149.628906 231.613281 149.894531 231.878906 150.121094 231.984375 C 150.347656 232.09375 150.648438 232.363281 150.800781 232.597656 C 150.9375 232.839844 151.207031 233.070312 151.394531 233.121094 C 151.636719 233.171875 151.8125 233.382812 151.9375 233.734375 C 152.082031 234.144531 152.238281 234.292969 152.585938 234.355469 C 152.898438 234.417969 153.09375 234.585938 153.195312 234.875 C 153.261719 235.109375 153.527344 235.375 153.753906 235.480469 C 153.980469 235.589844 154.246094 235.851562 154.316406 236.101562 C 154.414062 236.375 154.609375 236.542969 154.921875 236.605469 C 155.253906 236.675781 155.429688 236.832031 155.558594 237.199219 C 155.652344 237.457031 155.996094 237.898438 156.328125 238.15625 C 156.640625 238.417969 157 238.855469 157.097656 239.128906 C 157.21875 239.464844 157.378906 239.628906 157.628906 239.660156 C 157.867188 239.6875 158.039062 239.855469 158.148438 240.15625 C 158.238281 240.417969 158.546875 240.75 158.851562 240.933594 C 159.234375 241.15625 159.457031 241.4375 159.605469 241.863281 C 159.769531 242.316406 159.945312 242.527344 160.324219 242.683594 C 160.65625 242.816406 160.875 243.035156 160.984375 243.335938 C 161.082031 243.609375 161.3125 243.871094 161.558594 243.988281 C 161.859375 244.121094 162.046875 244.359375 162.199219 244.835938 C 162.363281 245.292969 162.574219 245.558594 162.96875 245.796875 C 163.375 246.027344 163.574219 246.296875 163.75 246.796875 C 163.933594 247.316406 164.109375 247.523438 164.480469 247.703125 C 164.820312 247.835938 165.054688 248.113281 165.261719 248.601562 C 165.476562 249.058594 165.6875 249.324219 165.917969 249.394531 C 166.164062 249.460938 166.398438 249.738281 166.648438 250.296875 C 166.867188 250.765625 167.1875 251.183594 167.402344 251.3125 C 167.675781 251.453125 167.910156 251.832031 168.238281 252.65625 C 168.601562 253.535156 168.816406 253.851562 169.136719 254.027344 C 169.515625 254.234375 169.632812 254.46875 170.539062 257.015625 C 171.476562 259.65625 171.507812 259.800781 171.324219 260.34375 C 171.203125 260.761719 171.207031 261.121094 171.394531 261.597656 C 171.5625 262.070312 171.589844 262.4375 171.46875 262.769531 C 171.378906 263.042969 171.347656 263.394531 171.40625 263.558594 C 171.46875 263.726562 171.433594 264.164062 171.324219 264.53125 C 171.214844 264.894531 171.171875 265.300781 171.214844 265.421875 C 171.257812 265.542969 171.070312 266.125 170.804688 266.679688 C 170.53125 267.253906 170.355469 267.8125 170.398438 267.933594 C 170.457031 268.050781 170.257812 268.546875 169.976562 269.007812 C 169.535156 269.742188 169.332031 269.9375 168.5625 270.277344 C 168.082031 270.515625 167.605469 270.804688 167.523438 270.953125 C 167.4375 271.101562 166.757812 271.449219 165.949219 271.769531 C 164.777344 272.21875 164.414062 272.3125 164 272.203125 C 163.628906 272.113281 163.441406 272.164062 163.25 272.351562 C 163.101562 272.507812 162.871094 272.585938 162.695312 272.566406 C 162.515625 272.542969 160.589844 273.140625 158.410156 273.878906 C 154.730469 275.117188 154.386719 275.207031 153.878906 275.078125 C 153.375 274.949219 153 275.046875 149.722656 276.125 C 146.515625 277.195312 146.058594 277.304688 145.492188 277.199219 C 144.945312 277.105469 144.472656 277.21875 141.867188 278.058594 C 139.523438 278.824219 138.769531 279.003906 138.339844 278.953125 C 137.921875 278.878906 137.214844 279.0625 135.191406 279.710938 C 132.777344 280.515625 132.554688 280.5625 132.015625 280.394531 C 131.5 280.234375 131.269531 280.265625 129.894531 280.769531 C 128.390625 281.304688 128.3125 281.316406 127.96875 281.027344 C 127.632812 280.753906 127.53125 280.753906 126.4375 281.144531 C 125.519531 281.488281 125.164062 281.542969 124.84375 281.417969 C 124.566406 281.3125 124.019531 281.351562 123.269531 281.550781 C 122.402344 281.753906 122.019531 281.789062 121.773438 281.621094 C 121.550781 281.476562 121.195312 281.484375 120.660156 281.621094 C 120.128906 281.757812 119.738281 281.761719 119.429688 281.613281 C 119.167969 281.503906 118.78125 281.46875 118.550781 281.550781 C 118.277344 281.648438 117.941406 281.613281 117.660156 281.441406 C 117.386719 281.296875 117.023438 281.238281 116.839844 281.300781 C 116.648438 281.386719 116.308594 281.339844 116.082031 281.230469 C 115.855469 281.125 115.503906 281.09375 115.289062 281.167969 C 115.078125 281.246094 114.683594 281.195312 114.398438 281.058594 C 114.109375 280.921875 113.714844 280.875 113.503906 280.949219 C 113.277344 281.03125 112.933594 280.980469 112.65625 280.824219 C 112.257812 280.621094 112.035156 280.617188 111.457031 280.820312 C 110.917969 281.03125 110.628906 281.03125 110.320312 280.882812 C 110.09375 280.777344 109.71875 280.738281 109.496094 280.832031 C 109.226562 280.929688 108.882812 280.878906 108.605469 280.722656 C 108.222656 280.515625 107.984375 280.515625 107.4375 280.710938 C 106.832031 280.925781 106.652344 280.902344 105.800781 280.523438 C 105.253906 280.289062 104.78125 280.113281 104.722656 280.136719 C 104.644531 280.164062 104.179688 280.054688 103.652344 279.917969 C 103.148438 279.789062 102.28125 279.464844 101.738281 279.195312 C 101.125 278.902344 100.71875 278.582031 100.617188 278.347656 C 100.542969 278.132812 100.277344 277.867188 100.011719 277.742188 C 99.636719 277.550781 99.460938 277.304688 99.121094 276.433594 C 98.789062 275.59375 98.605469 275.320312 98.273438 275.160156 C 97.964844 275.015625 97.792969 274.769531 97.59375 274.15625 C 97.382812 273.566406 97.363281 273.316406 97.539062 273.132812 C 97.652344 273.023438 97.742188 272.703125 97.71875 272.4375 C 97.707031 272.167969 97.777344 271.734375 97.851562 271.46875 C 97.945312 271.195312 97.953125 270.78125 97.855469 270.5625 C 97.753906 270.273438 97.8125 269.910156 98.050781 269.429688 C 98.277344 268.957031 98.546875 268.65625 98.820312 268.5625 C 99.046875 268.480469 99.328125 268.210938 99.457031 267.941406 L 99.699219 267.480469 C 114.96875 262.0625 115.261719 261.972656 115.789062 262.113281 C 116.199219 262.207031 116.707031 262.144531 117.683594 261.867188 C 118.738281 261.5625 119.128906 261.507812 119.472656 261.660156 C 119.832031 261.804688 120.207031 261.757812 121.429688 261.390625 C 122.542969 261.066406 123.039062 260.972656 123.308594 261.101562 C 123.542969 261.1875 124.105469 261.140625 124.855469 260.945312 C 125.640625 260.746094 126.167969 260.699219 126.433594 260.8125 C 126.738281 260.941406 127.15625 260.878906 128.144531 260.578125 C 129.21875 260.234375 129.5625 260.195312 130.03125 260.355469 C 130.457031 260.496094 130.808594 260.472656 131.367188 260.273438 C 131.789062 260.105469 132.171875 259.886719 132.238281 259.742188 C 132.335938 259.535156 132.1875 259.402344 131.589844 259.117188 C 131.117188 258.890625 130.679688 258.808594 130.449219 258.890625 C 130.191406 258.980469 129.632812 258.804688 128.625 258.324219 C 127.707031 257.898438 127.066406 257.683594 126.851562 257.757812 C 126.65625 257.828125 126.097656 257.699219 125.589844 257.472656 C 125.085938 257.257812 124.429688 256.996094 124.101562 256.890625 C 123.792969 256.792969 123.421875 256.753906 123.300781 256.796875 C 123.179688 256.839844 122.542969 256.640625 121.910156 256.351562 C 121.257812 256.050781 120.597656 255.773438 120.433594 255.695312 C 120.273438 255.632812 119.9375 255.597656 119.6875 255.621094 C 119.429688 255.660156 118.613281 255.386719 117.835938 254.976562 C 116.863281 254.503906 116.3125 254.339844 116.046875 254.417969 C 115.769531 254.496094 115.128906 254.28125 113.808594 253.640625 C 112.777344 253.148438 111.558594 252.695312 111.050781 252.617188 C 110.53125 252.546875 109 251.945312 107.464844 251.226562 C 105.96875 250.527344 104.464844 249.847656 104.109375 249.714844 C 103.742188 249.589844 102.839844 249.261719 102.085938 249.015625 C 101.324219 248.757812 99.765625 248.113281 98.597656 247.570312 C 97.433594 247.027344 95.996094 246.308594 95.429688 245.960938 C 94.855469 245.636719 94.347656 245.269531 94.308594 245.164062 C 94.292969 245.066406 92.996094 244.347656 91.441406 243.582031 C 89.90625 242.8125 88.554688 242.046875 88.441406 241.863281 C 88.328125 241.699219 87.617188 241.234375 86.851562 240.855469 C 86.066406 240.46875 85.117188 239.867188 84.734375 239.507812 C 84.332031 239.152344 83.65625 238.691406 83.21875 238.472656 C 82.769531 238.253906 82.304688 237.90625 82.171875 237.679688 C 82.042969 237.46875 81.574219 237.105469 81.109375 236.863281 C 80.652344 236.632812 80.164062 236.257812 80.023438 236.015625 C 79.875 235.78125 79.546875 235.535156 79.3125 235.449219 C 79.023438 235.363281 78.800781 235.167969 78.703125 234.894531 C 78.625 234.667969 78.375 234.398438 78.113281 234.285156 C 77.851562 234.175781 77.429688 233.949219 77.171875 233.800781 C 76.898438 233.65625 76.621094 233.363281 76.546875 233.148438 C 76.460938 232.90625 76.25 232.742188 75.953125 232.675781 C 75.621094 232.609375 75.449219 232.464844 75.316406 232.082031 C 75.199219 231.761719 75.019531 231.566406 74.769531 231.507812 C 74.550781 231.46875 74.339844 231.265625 74.25 231.007812 C 74.164062 230.765625 73.898438 230.5 73.589844 230.355469 C 73.28125 230.207031 73.015625 229.941406 72.925781 229.683594 C 72.828125 229.410156 72.632812 229.242188 72.320312 229.183594 C 71.972656 229.117188 71.816406 228.96875 71.671875 228.558594 C 71.546875 228.203125 71.378906 228.011719 71.175781 227.980469 C 70.960938 227.957031 70.738281 227.710938 70.507812 227.210938 C 70.285156 226.726562 70 226.402344 69.703125 226.234375 C 69.414062 226.097656 69.160156 225.8125 69.050781 225.507812 C 68.925781 225.15625 68.75 225 68.417969 224.929688 C 68.015625 224.851562 67.921875 224.730469 67.660156 224 C 67.433594 223.363281 67.292969 223.15625 67.058594 223.121094 C 66.828125 223.101562 66.609375 222.820312 66.320312 222.238281 C 66.027344 221.660156 65.757812 221.328125 65.480469 221.222656 C 65.179688 221.105469 65.019531 220.890625 64.789062 220.238281 C 64.53125 219.507812 64.433594 219.386719 64.03125 219.308594 C 63.628906 219.230469 63.535156 219.109375 63.285156 218.410156 C 63.085938 217.800781 62.917969 217.566406 62.59375 217.425781 C 62.246094 217.261719 62.105469 217.054688 61.789062 216.121094 C 61.445312 215.152344 61.347656 215.015625 60.898438 214.816406 C 60.476562 214.640625 60.367188 214.476562 60.007812 213.507812 C 59.695312 212.628906 59.527344 212.347656 59.109375 212.035156 C 58.675781 211.726562 58.480469 211.417969 57.941406 210.089844 C 57.433594 208.851562 57.21875 208.484375 56.949219 208.359375 C 56.625 208.214844 56.476562 207.894531 55.816406 206.027344 C 55.136719 204.113281 54.976562 203.8125 54.457031 203.3125 L 53.882812 202.75 C 45.75 180.023438 45.699219 179.835938 45.765625 179.058594 Z M 45.765625 179.058594 " fill-opacity="1" fill-rule="nonzero"/></g></g></g></g></g></g></g></svg>