<svg xmlns="http://www.w3.org/2000/svg" xmlns:xlink="http://www.w3.org/1999/xlink" width="672" zoomAndPan="magnify" viewBox="0 0 504 125.999998" height="168" preserveAspectRatio="xMidYMid meet" version="1.0"><defs><g/></defs><path stroke-linecap="butt" transform="matrix(0, 0.75, -0.75, 0, 276.510077, 47.487911)" fill="none" stroke-linejoin="miter" d="M 0.00049331 0.497811 L 43.385912 0.497811 " stroke="#00467f" stroke-width="1" stroke-opacity="1" stroke-miterlimit="4"/><g fill="#00467f" fill-opacity="1"><g transform="translate(116.946391, 85.480492)"><g><path d="M 2.890625 -7.125 C 3.710938 -7.125 4.320312 -6.953125 4.71875 -6.609375 C 5.125 -6.273438 5.328125 -5.816406 5.328125 -5.234375 C 5.328125 -4.804688 5.222656 -4.445312 5.015625 -4.15625 C 4.816406 -3.875 4.53125 -3.660156 4.15625 -3.515625 C 3.789062 -3.378906 3.359375 -3.3125 2.859375 -3.3125 L 5.421875 0 L 4.546875 0 L 2.03125 -3.3125 L 1.578125 -3.3125 L 1.578125 0 L 0.859375 0 L 0.859375 -7.125 Z M 2.859375 -4.015625 C 3.410156 -4.015625 3.832031 -4.113281 4.125 -4.3125 C 4.425781 -4.507812 4.578125 -4.816406 4.578125 -5.234375 C 4.578125 -5.597656 4.445312 -5.882812 4.1875 -6.09375 C 3.9375 -6.3125 3.550781 -6.421875 3.03125 -6.421875 L 1.578125 -6.421875 L 1.578125 -4.015625 Z M 2.859375 -4.015625 "/></g></g></g><g fill="#00467f" fill-opacity="1"><g transform="translate(126.08895, 85.480492)"><g/></g></g><g fill="#00467f" fill-opacity="1"><g transform="translate(132.108599, 85.480492)"><g><path d="M 0.859375 -7.125 L 4.9375 -7.125 L 4.9375 -6.4375 L 1.578125 -6.4375 L 1.578125 -4.1875 L 4.9375 -4.1875 L 4.9375 -3.515625 L 1.578125 -3.515625 L 1.578125 -0.6875 L 4.9375 -0.6875 L 4.9375 0 L 0.859375 0 Z M 0.859375 -7.125 "/></g></g></g><g fill="#00467f" fill-opacity="1"><g transform="translate(140.68606, 85.480492)"><g/></g></g><g fill="#00467f" fill-opacity="1"><g transform="translate(146.705709, 85.480492)"><g><path d="M 6.109375 0 L 5.015625 -2.34375 L 1.890625 -2.34375 L 0.796875 0 L 0.046875 0 L 3.375 -7.125 L 3.546875 -7.125 L 6.84375 0 Z M 2.203125 -3.015625 L 4.6875 -3.015625 L 3.453125 -5.6875 Z M 2.203125 -3.015625 "/></g></g></g><g fill="#00467f" fill-opacity="1"><g transform="translate(156.671098, 85.480492)"><g/></g></g><g fill="#00467f" fill-opacity="1"><g transform="translate(162.690747, 85.480492)"><g><path d="M 1.578125 -7.125 L 1.578125 -0.6875 L 4.3125 -0.6875 L 4.3125 0 L 0.859375 0 L 0.859375 -7.125 Z M 1.578125 -7.125 "/></g></g></g><g fill="#00467f" fill-opacity="1"><g transform="translate(170.348732, 85.480492)"><g/></g></g><g fill="#00467f" fill-opacity="1"><g transform="translate(176.368381, 85.480492)"><g/></g></g><g fill="#00467f" fill-opacity="1"><g transform="translate(182.38803, 85.480492)"><g/></g></g><g fill="#00467f" fill-opacity="1"><g transform="translate(188.419044, 85.480492)"><g><path d="M 0.859375 -7.125 L 4.9375 -7.125 L 4.9375 -6.4375 L 1.578125 -6.4375 L 1.578125 -4.1875 L 4.9375 -4.1875 L 4.9375 -3.515625 L 1.578125 -3.515625 L 1.578125 -0.6875 L 4.9375 -0.6875 L 4.9375 0 L 0.859375 0 Z M 0.859375 -7.125 "/></g></g></g><g fill="#00467f" fill-opacity="1"><g transform="translate(196.996504, 85.480492)"><g/></g></g><g fill="#00467f" fill-opacity="1"><g transform="translate(203.016153, 85.480492)"><g><path d="M 2.40625 0.171875 C 1.925781 0.171875 1.515625 0.046875 1.171875 -0.203125 C 0.828125 -0.453125 0.519531 -0.828125 0.25 -1.328125 L 0.859375 -1.703125 C 1.066406 -1.304688 1.296875 -1.007812 1.546875 -0.8125 C 1.796875 -0.613281 2.0625 -0.515625 2.34375 -0.515625 C 2.582031 -0.515625 2.800781 -0.566406 3 -0.671875 C 3.207031 -0.785156 3.367188 -0.9375 3.484375 -1.125 C 3.597656 -1.3125 3.65625 -1.507812 3.65625 -1.71875 C 3.65625 -1.9375 3.59375 -2.140625 3.46875 -2.328125 C 3.351562 -2.523438 3.175781 -2.722656 2.9375 -2.921875 C 2.707031 -3.117188 2.304688 -3.453125 1.734375 -3.921875 C 1.472656 -4.128906 1.269531 -4.3125 1.125 -4.46875 C 0.988281 -4.625 0.882812 -4.789062 0.8125 -4.96875 C 0.738281 -5.15625 0.703125 -5.378906 0.703125 -5.640625 C 0.703125 -5.953125 0.773438 -6.234375 0.921875 -6.484375 C 1.078125 -6.742188 1.285156 -6.941406 1.546875 -7.078125 C 1.816406 -7.222656 2.113281 -7.296875 2.4375 -7.296875 C 2.832031 -7.296875 3.171875 -7.195312 3.453125 -7 C 3.742188 -6.800781 4.023438 -6.515625 4.296875 -6.140625 L 3.71875 -5.6875 C 3.570312 -5.894531 3.4375 -6.054688 3.3125 -6.171875 C 3.195312 -6.285156 3.0625 -6.378906 2.90625 -6.453125 C 2.757812 -6.523438 2.59375 -6.5625 2.40625 -6.5625 C 2.207031 -6.5625 2.035156 -6.519531 1.890625 -6.4375 C 1.742188 -6.351562 1.632812 -6.242188 1.5625 -6.109375 C 1.488281 -5.972656 1.453125 -5.828125 1.453125 -5.671875 C 1.453125 -5.441406 1.515625 -5.226562 1.640625 -5.03125 C 1.773438 -4.84375 1.96875 -4.65625 2.21875 -4.46875 C 2.75 -4.082031 3.15625 -3.765625 3.4375 -3.515625 C 3.726562 -3.265625 3.960938 -2.992188 4.140625 -2.703125 C 4.316406 -2.410156 4.40625 -2.085938 4.40625 -1.734375 C 4.40625 -1.398438 4.316406 -1.085938 4.140625 -0.796875 C 3.960938 -0.503906 3.722656 -0.269531 3.421875 -0.09375 C 3.117188 0.0820312 2.78125 0.171875 2.40625 0.171875 Z M 2.40625 0.171875 "/></g></g></g><g fill="#00467f" fill-opacity="1"><g transform="translate(211.117746, 85.480492)"><g/></g></g><g fill="#00467f" fill-opacity="1"><g transform="translate(217.137395, 85.480492)"><g><path d="M 1.765625 -6.421875 L 0.15625 -6.421875 L 0.15625 -7.125 L 4.0625 -7.125 L 4.0625 -6.421875 L 2.484375 -6.421875 L 2.484375 0 L 1.765625 0 Z M 1.765625 -6.421875 "/></g></g></g><g fill="#00467f" fill-opacity="1"><g transform="translate(224.435921, 85.480492)"><g/></g></g><g fill="#00467f" fill-opacity="1"><g transform="translate(230.455571, 85.480492)"><g><path d="M 6.109375 0 L 5.015625 -2.34375 L 1.890625 -2.34375 L 0.796875 0 L 0.046875 0 L 3.375 -7.125 L 3.546875 -7.125 L 6.84375 0 Z M 2.203125 -3.015625 L 4.6875 -3.015625 L 3.453125 -5.6875 Z M 2.203125 -3.015625 "/></g></g></g><g fill="#00467f" fill-opacity="1"><g transform="translate(240.420959, 85.480492)"><g/></g></g><g fill="#00467f" fill-opacity="1"><g transform="translate(246.440608, 85.480492)"><g><path d="M 1.765625 -6.421875 L 0.15625 -6.421875 L 0.15625 -7.125 L 4.0625 -7.125 L 4.0625 -6.421875 L 2.484375 -6.421875 L 2.484375 0 L 1.765625 0 Z M 1.765625 -6.421875 "/></g></g></g><g fill="#00467f" fill-opacity="1"><g transform="translate(253.739135, 85.480492)"><g/></g></g><g fill="#00467f" fill-opacity="1"><g transform="translate(259.758784, 85.480492)"><g><path d="M 0.859375 -7.125 L 4.9375 -7.125 L 4.9375 -6.4375 L 1.578125 -6.4375 L 1.578125 -4.1875 L 4.9375 -4.1875 L 4.9375 -3.515625 L 1.578125 -3.515625 L 1.578125 -0.6875 L 4.9375 -0.6875 L 4.9375 0 L 0.859375 0 Z M 0.859375 -7.125 "/></g></g></g><g fill="#00467f" fill-opacity="1"><g transform="translate(38.526121, 72.111879)"><g><path d="M 0.28125 -17.078125 L 0.28125 -21.703125 L 2.25 -21.703125 L 2.25 -23.015625 C 2.25 -24.972656 2.390625 -26.488281 2.671875 -27.5625 C 2.960938 -28.644531 3.484375 -29.429688 4.234375 -29.921875 C 4.984375 -30.410156 6.078125 -30.65625 7.515625 -30.65625 C 8.828125 -30.65625 10.109375 -30.394531 11.359375 -29.875 L 11.359375 -25.703125 C 10.566406 -25.953125 9.914062 -26.078125 9.40625 -26.078125 C 8.882812 -26.078125 8.507812 -26.007812 8.28125 -25.875 C 8.050781 -25.738281 7.894531 -25.492188 7.8125 -25.140625 C 7.726562 -24.785156 7.6875 -24.210938 7.6875 -23.421875 L 7.6875 -21.703125 L 11.125 -21.703125 L 11.125 -17.078125 L 7.6875 -17.078125 L 7.6875 0 L 2.25 0 L 2.25 -17.078125 Z M 0.28125 -17.078125 "/></g></g></g><g fill="#00467f" fill-opacity="1"><g transform="translate(49.971139, 72.111879)"><g><path d="M 5.484375 -23.578125 C 4.828125 -23.578125 4.234375 -23.75 3.703125 -24.09375 C 3.171875 -24.4375 2.753906 -24.898438 2.453125 -25.484375 C 2.148438 -26.066406 2 -26.6875 2 -27.34375 C 2 -27.945312 2.15625 -28.503906 2.46875 -29.015625 C 2.78125 -29.535156 3.203125 -29.9375 3.734375 -30.21875 C 4.265625 -30.507812 4.847656 -30.65625 5.484375 -30.65625 C 6.128906 -30.65625 6.710938 -30.488281 7.234375 -30.15625 C 7.753906 -29.832031 8.171875 -29.398438 8.484375 -28.859375 C 8.796875 -28.316406 8.953125 -27.71875 8.953125 -27.0625 C 8.953125 -26.4375 8.796875 -25.859375 8.484375 -25.328125 C 8.171875 -24.796875 7.75 -24.367188 7.21875 -24.046875 C 6.6875 -23.734375 6.109375 -23.578125 5.484375 -23.578125 Z M 2.78125 -21.703125 L 8.21875 -21.703125 L 8.21875 0 L 2.78125 0 Z M 2.78125 -21.703125 "/></g></g></g><g fill="#00467f" fill-opacity="1"><g transform="translate(60.925664, 72.111879)"><g><path d="M 7.4375 -21.703125 L 7.4375 -18.96875 C 7.925781 -20.050781 8.578125 -20.875 9.390625 -21.4375 C 10.210938 -22 11.085938 -22.28125 12.015625 -22.28125 C 12.890625 -22.28125 13.679688 -22.085938 14.390625 -21.703125 L 12.71875 -17.046875 C 12.113281 -17.347656 11.582031 -17.5 11.125 -17.5 C 10.21875 -17.5 9.5 -16.976562 8.96875 -15.9375 C 8.4375 -14.90625 8.171875 -13.351562 8.171875 -11.28125 L 8.171875 0 L 2.734375 0 L 2.734375 -21.703125 Z M 7.4375 -21.703125 "/></g></g></g><g fill="#00467f" fill-opacity="1"><g transform="translate(74.659568, 72.111879)"><g><path d="M 8.625 0.578125 C 7.039062 0.578125 5.613281 0.265625 4.34375 -0.359375 C 3.082031 -0.992188 1.972656 -1.921875 1.015625 -3.140625 L 4.375 -6.828125 C 5.03125 -6.085938 5.769531 -5.476562 6.59375 -5 C 7.425781 -4.53125 8.195312 -4.296875 8.90625 -4.296875 C 9.59375 -4.296875 10.164062 -4.460938 10.625 -4.796875 C 11.09375 -5.140625 11.328125 -5.554688 11.328125 -6.046875 C 11.328125 -6.378906 11.226562 -6.671875 11.03125 -6.921875 C 10.84375 -7.179688 10.535156 -7.453125 10.109375 -7.734375 C 9.691406 -8.023438 9.070312 -8.375 8.25 -8.78125 C 6.644531 -9.601562 5.382812 -10.367188 4.46875 -11.078125 C 3.5625 -11.785156 2.894531 -12.523438 2.46875 -13.296875 C 2.050781 -14.078125 1.84375 -14.984375 1.84375 -16.015625 C 1.84375 -17.140625 2.140625 -18.179688 2.734375 -19.140625 C 3.335938 -20.109375 4.171875 -20.875 5.234375 -21.4375 C 6.296875 -22 7.507812 -22.28125 8.875 -22.28125 C 10.289062 -22.28125 11.617188 -21.972656 12.859375 -21.359375 C 14.097656 -20.742188 15.148438 -19.851562 16.015625 -18.6875 L 12.671875 -15.28125 C 12.015625 -15.9375 11.378906 -16.4375 10.765625 -16.78125 C 10.148438 -17.125 9.53125 -17.296875 8.90625 -17.296875 C 8.332031 -17.296875 7.863281 -17.175781 7.5 -16.9375 C 7.132812 -16.707031 6.953125 -16.390625 6.953125 -15.984375 C 6.953125 -15.597656 7.097656 -15.28125 7.390625 -15.03125 C 7.691406 -14.789062 8.195312 -14.507812 8.90625 -14.1875 C 10.789062 -13.28125 12.265625 -12.453125 13.328125 -11.703125 C 14.390625 -10.960938 15.171875 -10.160156 15.671875 -9.296875 C 16.179688 -8.441406 16.4375 -7.414062 16.4375 -6.21875 C 16.4375 -4.9375 16.113281 -3.773438 15.46875 -2.734375 C 14.832031 -1.703125 13.921875 -0.890625 12.734375 -0.296875 C 11.546875 0.285156 10.175781 0.578125 8.625 0.578125 Z M 8.625 0.578125 "/></g></g></g><g fill="#00467f" fill-opacity="1"><g transform="translate(92.644599, 72.111879)"><g><path d="M 3.390625 -17 L 0.609375 -17 L 0.609375 -21.703125 L 3.390625 -21.703125 L 3.390625 -29.71875 L 8.828125 -29.71875 L 8.828125 -21.703125 L 12.0625 -21.703125 L 12.0625 -17 L 8.828125 -17 L 8.828125 0 L 3.390625 0 Z M 3.390625 -17 "/></g></g></g><g fill="#00467f" fill-opacity="1"><g transform="translate(104.907126, 72.111879)"><g><path d="M 8.171875 -21.703125 L 8.171875 -19.5 C 9.285156 -20.425781 10.347656 -21.117188 11.359375 -21.578125 C 12.367188 -22.046875 13.445312 -22.28125 14.59375 -22.28125 C 15.957031 -22.28125 17.203125 -21.976562 18.328125 -21.375 C 19.460938 -20.78125 20.363281 -19.914062 21.03125 -18.78125 C 21.695312 -17.644531 22.03125 -16.332031 22.03125 -14.84375 L 22.03125 0 L 16.59375 0 L 16.59375 -10.265625 C 16.59375 -11.898438 16.507812 -13.207031 16.34375 -14.1875 C 16.1875 -15.164062 15.84375 -15.925781 15.3125 -16.46875 C 14.78125 -17.019531 13.984375 -17.296875 12.921875 -17.296875 C 12.015625 -17.296875 11.203125 -17.039062 10.484375 -16.53125 C 9.765625 -16.03125 9.195312 -15.285156 8.78125 -14.296875 C 8.375 -13.316406 8.171875 -12.117188 8.171875 -10.703125 L 8.171875 0 L 2.734375 0 L 2.734375 -21.703125 Z M 8.171875 -21.703125 "/></g></g></g><g fill="#00467f" fill-opacity="1"><g transform="translate(129.432168, 72.111879)"><g><path d="M 11.96875 0.578125 C 10.144531 0.578125 8.4375 0.0859375 6.84375 -0.890625 C 5.25 -1.878906 3.984375 -3.242188 3.046875 -4.984375 C 2.109375 -6.734375 1.640625 -8.679688 1.640625 -10.828125 C 1.640625 -13.035156 2.09375 -15.007812 3 -16.75 C 3.914062 -18.5 5.148438 -19.859375 6.703125 -20.828125 C 8.253906 -21.796875 9.972656 -22.28125 11.859375 -22.28125 C 14.441406 -22.28125 16.71875 -21.296875 18.6875 -19.328125 L 18.6875 -21.703125 L 24.109375 -21.703125 L 24.109375 0 L 18.6875 0 L 18.6875 -2.28125 C 17.695312 -1.332031 16.664062 -0.617188 15.59375 -0.140625 C 14.519531 0.335938 13.3125 0.578125 11.96875 0.578125 Z M 12.953125 -4.421875 C 14.078125 -4.421875 15.09375 -4.6875 16 -5.21875 C 16.914062 -5.75 17.628906 -6.507812 18.140625 -7.5 C 18.660156 -8.5 18.921875 -9.632812 18.921875 -10.90625 C 18.921875 -12.164062 18.660156 -13.28125 18.140625 -14.25 C 17.628906 -15.21875 16.921875 -15.96875 16.015625 -16.5 C 15.117188 -17.03125 14.097656 -17.296875 12.953125 -17.296875 C 11.785156 -17.296875 10.757812 -17.007812 9.875 -16.4375 C 8.988281 -15.863281 8.304688 -15.09375 7.828125 -14.125 C 7.347656 -13.15625 7.109375 -12.070312 7.109375 -10.875 C 7.109375 -9.644531 7.359375 -8.539062 7.859375 -7.5625 C 8.367188 -6.582031 9.066406 -5.8125 9.953125 -5.25 C 10.835938 -4.695312 11.835938 -4.421875 12.953125 -4.421875 Z M 12.953125 -4.421875 "/></g></g></g><g fill="#00467f" fill-opacity="1"><g transform="translate(156.287089, 72.111879)"><g><path d="M 3.390625 -17 L 0.609375 -17 L 0.609375 -21.703125 L 3.390625 -21.703125 L 3.390625 -29.71875 L 8.828125 -29.71875 L 8.828125 -21.703125 L 12.0625 -21.703125 L 12.0625 -17 L 8.828125 -17 L 8.828125 0 L 3.390625 0 Z M 3.390625 -17 "/></g></g></g><g fill="#00467f" fill-opacity="1"><g transform="translate(168.549616, 72.111879)"><g><path d="M 5.484375 -23.578125 C 4.828125 -23.578125 4.234375 -23.75 3.703125 -24.09375 C 3.171875 -24.4375 2.753906 -24.898438 2.453125 -25.484375 C 2.148438 -26.066406 2 -26.6875 2 -27.34375 C 2 -27.945312 2.15625 -28.503906 2.46875 -29.015625 C 2.78125 -29.535156 3.203125 -29.9375 3.734375 -30.21875 C 4.265625 -30.507812 4.847656 -30.65625 5.484375 -30.65625 C 6.128906 -30.65625 6.710938 -30.488281 7.234375 -30.15625 C 7.753906 -29.832031 8.171875 -29.398438 8.484375 -28.859375 C 8.796875 -28.316406 8.953125 -27.71875 8.953125 -27.0625 C 8.953125 -26.4375 8.796875 -25.859375 8.484375 -25.328125 C 8.171875 -24.796875 7.75 -24.367188 7.21875 -24.046875 C 6.6875 -23.734375 6.109375 -23.578125 5.484375 -23.578125 Z M 2.78125 -21.703125 L 8.21875 -21.703125 L 8.21875 0 L 2.78125 0 Z M 2.78125 -21.703125 "/></g></g></g><g fill="#00467f" fill-opacity="1"><g transform="translate(179.50414, 72.111879)"><g><path d="M 13.046875 0.578125 C 10.910156 0.578125 8.972656 0.0664062 7.234375 -0.953125 C 5.492188 -1.984375 4.125 -3.375 3.125 -5.125 C 2.132812 -6.882812 1.640625 -8.800781 1.640625 -10.875 C 1.640625 -12.96875 2.15625 -14.882812 3.1875 -16.625 C 4.21875 -18.375 5.601562 -19.753906 7.34375 -20.765625 C 9.09375 -21.773438 10.992188 -22.28125 13.046875 -22.28125 C 15.085938 -22.28125 16.976562 -21.773438 18.71875 -20.765625 C 20.46875 -19.753906 21.859375 -18.375 22.890625 -16.625 C 23.921875 -14.882812 24.4375 -12.96875 24.4375 -10.875 C 24.4375 -8.800781 23.9375 -6.882812 22.9375 -5.125 C 21.945312 -3.375 20.582031 -1.984375 18.84375 -0.953125 C 17.101562 0.0664062 15.171875 0.578125 13.046875 0.578125 Z M 13.046875 -4.578125 C 14.128906 -4.578125 15.125 -4.832031 16.03125 -5.34375 C 16.945312 -5.863281 17.664062 -6.601562 18.1875 -7.5625 C 18.707031 -8.519531 18.96875 -9.609375 18.96875 -10.828125 C 18.96875 -12.054688 18.710938 -13.144531 18.203125 -14.09375 C 17.703125 -15.050781 17 -15.796875 16.09375 -16.328125 C 15.195312 -16.859375 14.179688 -17.125 13.046875 -17.125 C 11.898438 -17.125 10.875 -16.859375 9.96875 -16.328125 C 9.070312 -15.796875 8.367188 -15.050781 7.859375 -14.09375 C 7.359375 -13.144531 7.109375 -12.054688 7.109375 -10.828125 C 7.109375 -9.609375 7.367188 -8.519531 7.890625 -7.5625 C 8.410156 -6.601562 9.125 -5.863281 10.03125 -5.34375 C 10.945312 -4.832031 11.953125 -4.578125 13.046875 -4.578125 Z M 13.046875 -4.578125 "/></g></g></g><g fill="#00467f" fill-opacity="1"><g transform="translate(205.582443, 72.111879)"><g><path d="M 8.171875 -21.703125 L 8.171875 -19.5 C 9.285156 -20.425781 10.347656 -21.117188 11.359375 -21.578125 C 12.367188 -22.046875 13.445312 -22.28125 14.59375 -22.28125 C 15.957031 -22.28125 17.203125 -21.976562 18.328125 -21.375 C 19.460938 -20.78125 20.363281 -19.914062 21.03125 -18.78125 C 21.695312 -17.644531 22.03125 -16.332031 22.03125 -14.84375 L 22.03125 0 L 16.59375 0 L 16.59375 -10.265625 C 16.59375 -11.898438 16.507812 -13.207031 16.34375 -14.1875 C 16.1875 -15.164062 15.84375 -15.925781 15.3125 -16.46875 C 14.78125 -17.019531 13.984375 -17.296875 12.921875 -17.296875 C 12.015625 -17.296875 11.203125 -17.039062 10.484375 -16.53125 C 9.765625 -16.03125 9.195312 -15.285156 8.78125 -14.296875 C 8.375 -13.316406 8.171875 -12.117188 8.171875 -10.703125 L 8.171875 0 L 2.734375 0 L 2.734375 -21.703125 Z M 8.171875 -21.703125 "/></g></g></g><g fill="#00467f" fill-opacity="1"><g transform="translate(230.107485, 72.111879)"><g><path d="M 11.96875 0.578125 C 10.144531 0.578125 8.4375 0.0859375 6.84375 -0.890625 C 5.25 -1.878906 3.984375 -3.242188 3.046875 -4.984375 C 2.109375 -6.734375 1.640625 -8.679688 1.640625 -10.828125 C 1.640625 -13.035156 2.09375 -15.007812 3 -16.75 C 3.914062 -18.5 5.148438 -19.859375 6.703125 -20.828125 C 8.253906 -21.796875 9.972656 -22.28125 11.859375 -22.28125 C 14.441406 -22.28125 16.71875 -21.296875 18.6875 -19.328125 L 18.6875 -21.703125 L 24.109375 -21.703125 L 24.109375 0 L 18.6875 0 L 18.6875 -2.28125 C 17.695312 -1.332031 16.664062 -0.617188 15.59375 -0.140625 C 14.519531 0.335938 13.3125 0.578125 11.96875 0.578125 Z M 12.953125 -4.421875 C 14.078125 -4.421875 15.09375 -4.6875 16 -5.21875 C 16.914062 -5.75 17.628906 -6.507812 18.140625 -7.5 C 18.660156 -8.5 18.921875 -9.632812 18.921875 -10.90625 C 18.921875 -12.164062 18.660156 -13.28125 18.140625 -14.25 C 17.628906 -15.21875 16.921875 -15.96875 16.015625 -16.5 C 15.117188 -17.03125 14.097656 -17.296875 12.953125 -17.296875 C 11.785156 -17.296875 10.757812 -17.007812 9.875 -16.4375 C 8.988281 -15.863281 8.304688 -15.09375 7.828125 -14.125 C 7.347656 -13.15625 7.109375 -12.070312 7.109375 -10.875 C 7.109375 -9.644531 7.359375 -8.539062 7.859375 -7.5625 C 8.367188 -6.582031 9.066406 -5.8125 9.953125 -5.25 C 10.835938 -4.695312 11.835938 -4.421875 12.953125 -4.421875 Z M 12.953125 -4.421875 "/></g></g></g><g fill="#00467f" fill-opacity="1"><g transform="translate(256.962418, 72.111879)"><g><path d="M 7.640625 -30.078125 L 7.640625 0 L 2.203125 0 L 2.203125 -30.078125 Z M 7.640625 -30.078125 "/></g></g></g><g fill="#00467f" fill-opacity="1"><g transform="translate(326.161947, 87.2026)"><g><path d="M 6.78125 -8.421875 L 7.625 -8.421875 L 7.625 0 L 7.4375 0 L 1.859375 -6.375 L 1.859375 0 L 1.015625 0 L 1.015625 -8.421875 L 1.203125 -8.421875 L 6.78125 -1.96875 Z M 6.78125 -8.421875 "/></g></g></g><g fill="#00467f" fill-opacity="1"><g transform="translate(335.889642, 87.2026)"><g><path d="M 3.84375 0.15625 C 3.175781 0.15625 2.597656 0.0078125 2.109375 -0.28125 C 1.617188 -0.582031 1.242188 -0.976562 0.984375 -1.46875 C 0.722656 -1.96875 0.59375 -2.507812 0.59375 -3.09375 C 0.59375 -3.664062 0.722656 -4.203125 0.984375 -4.703125 C 1.253906 -5.210938 1.632812 -5.617188 2.125 -5.921875 C 2.613281 -6.234375 3.171875 -6.390625 3.796875 -6.390625 C 4.398438 -6.390625 4.945312 -6.25 5.4375 -5.96875 C 5.9375 -5.6875 6.328125 -5.296875 6.609375 -4.796875 C 6.890625 -4.296875 7.03125 -3.734375 7.03125 -3.109375 L 7.03125 -3.046875 L 1.421875 -3.046875 C 1.429688 -2.566406 1.539062 -2.144531 1.75 -1.78125 C 1.957031 -1.414062 2.238281 -1.128906 2.59375 -0.921875 C 2.957031 -0.722656 3.375 -0.625 3.84375 -0.625 C 4.40625 -0.625 4.859375 -0.75 5.203125 -1 C 5.554688 -1.257812 5.875 -1.613281 6.15625 -2.0625 L 6.8125 -1.71875 C 6.507812 -1.125 6.101562 -0.660156 5.59375 -0.328125 C 5.09375 -0.00390625 4.507812 0.15625 3.84375 0.15625 Z M 6.15625 -3.75 C 6 -4.375 5.707031 -4.84375 5.28125 -5.15625 C 4.863281 -5.46875 4.375 -5.625 3.8125 -5.625 C 3.238281 -5.625 2.753906 -5.46875 2.359375 -5.15625 C 1.960938 -4.84375 1.675781 -4.375 1.5 -3.75 Z M 6.15625 -3.75 "/></g></g></g><g fill="#00467f" fill-opacity="1"><g transform="translate(344.609525, 87.2026)"><g><path d="M 1.578125 -8.640625 L 1.578125 0 L 0.78125 0 L 0.78125 -8.640625 Z M 1.578125 -8.640625 "/></g></g></g><g fill="#00467f" fill-opacity="1"><g transform="translate(348.05597, 87.2026)"><g><path d="M 2.234375 0.171875 C 1.890625 0.171875 1.550781 0.09375 1.21875 -0.0625 C 0.894531 -0.226562 0.625 -0.453125 0.40625 -0.734375 L 0.90625 -1.296875 C 1.320312 -0.835938 1.753906 -0.609375 2.203125 -0.609375 C 2.410156 -0.609375 2.601562 -0.648438 2.78125 -0.734375 C 2.957031 -0.828125 3.097656 -0.953125 3.203125 -1.109375 C 3.304688 -1.273438 3.359375 -1.453125 3.359375 -1.640625 C 3.359375 -1.847656 3.304688 -2.023438 3.203125 -2.171875 C 3.097656 -2.328125 2.925781 -2.46875 2.6875 -2.59375 C 2.195312 -2.863281 1.820312 -3.082031 1.5625 -3.25 C 1.300781 -3.425781 1.085938 -3.632812 0.921875 -3.875 C 0.765625 -4.113281 0.6875 -4.398438 0.6875 -4.734375 C 0.6875 -5.054688 0.757812 -5.34375 0.90625 -5.59375 C 1.0625 -5.84375 1.269531 -6.035156 1.53125 -6.171875 C 1.789062 -6.316406 2.078125 -6.390625 2.390625 -6.390625 C 2.710938 -6.390625 3.007812 -6.316406 3.28125 -6.171875 C 3.5625 -6.035156 3.84375 -5.828125 4.125 -5.546875 L 3.609375 -5.015625 C 3.398438 -5.210938 3.195312 -5.363281 3 -5.46875 C 2.800781 -5.570312 2.582031 -5.625 2.34375 -5.625 C 2.175781 -5.625 2.019531 -5.582031 1.875 -5.5 C 1.738281 -5.425781 1.625 -5.328125 1.53125 -5.203125 C 1.445312 -5.078125 1.40625 -4.9375 1.40625 -4.78125 C 1.40625 -4.570312 1.46875 -4.390625 1.59375 -4.234375 C 1.71875 -4.078125 1.910156 -3.929688 2.171875 -3.796875 C 2.671875 -3.515625 3.046875 -3.285156 3.296875 -3.109375 C 3.554688 -2.929688 3.757812 -2.726562 3.90625 -2.5 C 4.050781 -2.28125 4.125 -2.003906 4.125 -1.671875 C 4.125 -1.347656 4.046875 -1.046875 3.890625 -0.765625 C 3.734375 -0.484375 3.507812 -0.253906 3.21875 -0.078125 C 2.9375 0.0859375 2.609375 0.171875 2.234375 0.171875 Z M 2.234375 0.171875 "/></g></g></g><g fill="#00467f" fill-opacity="1"><g transform="translate(353.588238, 87.2026)"><g><path d="M 3.84375 0.171875 C 3.238281 0.171875 2.6875 0.0234375 2.1875 -0.265625 C 1.6875 -0.566406 1.296875 -0.96875 1.015625 -1.46875 C 0.734375 -1.96875 0.59375 -2.507812 0.59375 -3.09375 C 0.59375 -3.6875 0.734375 -4.234375 1.015625 -4.734375 C 1.296875 -5.242188 1.6875 -5.644531 2.1875 -5.9375 C 2.6875 -6.238281 3.238281 -6.390625 3.84375 -6.390625 C 4.457031 -6.390625 5.007812 -6.238281 5.5 -5.9375 C 6 -5.644531 6.390625 -5.242188 6.671875 -4.734375 C 6.953125 -4.234375 7.09375 -3.6875 7.09375 -3.09375 C 7.09375 -2.507812 6.953125 -1.96875 6.671875 -1.46875 C 6.390625 -0.96875 6 -0.566406 5.5 -0.265625 C 5.007812 0.0234375 4.457031 0.171875 3.84375 0.171875 Z M 3.84375 -0.609375 C 4.300781 -0.609375 4.710938 -0.71875 5.078125 -0.9375 C 5.453125 -1.164062 5.742188 -1.46875 5.953125 -1.84375 C 6.171875 -2.226562 6.28125 -2.644531 6.28125 -3.09375 C 6.28125 -3.539062 6.171875 -3.957031 5.953125 -4.34375 C 5.734375 -4.726562 5.4375 -5.035156 5.0625 -5.265625 C 4.6875 -5.503906 4.28125 -5.625 3.84375 -5.625 C 3.40625 -5.625 3 -5.503906 2.625 -5.265625 C 2.257812 -5.035156 1.96875 -4.726562 1.75 -4.34375 C 1.53125 -3.957031 1.421875 -3.539062 1.421875 -3.09375 C 1.421875 -2.632812 1.523438 -2.21875 1.734375 -1.84375 C 1.941406 -1.46875 2.226562 -1.164062 2.59375 -0.9375 C 2.96875 -0.71875 3.382812 -0.609375 3.84375 -0.609375 Z M 3.84375 -0.609375 "/></g></g></g><g fill="#00467f" fill-opacity="1"><g transform="translate(362.366714, 87.2026)"><g><path d="M 1.734375 -6.234375 L 1.734375 -5.109375 C 2.378906 -5.960938 3.160156 -6.390625 4.078125 -6.390625 C 4.535156 -6.390625 4.9375 -6.28125 5.28125 -6.0625 C 5.632812 -5.851562 5.90625 -5.53125 6.09375 -5.09375 C 6.289062 -4.664062 6.390625 -4.132812 6.390625 -3.5 L 6.390625 0 L 5.578125 0 L 5.578125 -3.390625 C 5.578125 -4.148438 5.445312 -4.71875 5.1875 -5.09375 C 4.925781 -5.476562 4.503906 -5.671875 3.921875 -5.671875 C 3.535156 -5.671875 3.175781 -5.5625 2.84375 -5.34375 C 2.507812 -5.132812 2.238281 -4.828125 2.03125 -4.421875 C 1.832031 -4.023438 1.734375 -3.550781 1.734375 -3 L 1.734375 0 L 0.9375 0 L 0.9375 -6.234375 Z M 1.734375 -6.234375 "/></g></g></g><g fill="#00467f" fill-opacity="1"><g transform="translate(370.664722, 87.2026)"><g><path d="M 3.90625 -8.640625 L 4.78125 -8.640625 L 1.296875 1.15625 L 0.40625 1.15625 Z M 3.90625 -8.640625 "/></g></g></g><g fill="#00467f" fill-opacity="1"><g transform="translate(377.240405, 87.2026)"><g><path d="M 2.09375 -7.609375 L 0.1875 -7.609375 L 0.1875 -8.421875 L 4.8125 -8.421875 L 4.8125 -7.609375 L 2.9375 -7.609375 L 2.9375 0 L 2.09375 0 Z M 2.09375 -7.609375 "/></g></g></g><g fill="#00467f" fill-opacity="1"><g transform="translate(382.866091, 87.2026)"><g><path d="M 3.796875 0.15625 C 3.191406 0.15625 2.644531 0.0078125 2.15625 -0.28125 C 1.675781 -0.582031 1.296875 -0.984375 1.015625 -1.484375 C 0.734375 -1.992188 0.59375 -2.546875 0.59375 -3.140625 C 0.59375 -3.722656 0.734375 -4.257812 1.015625 -4.75 C 1.304688 -5.25 1.695312 -5.644531 2.1875 -5.9375 C 2.6875 -6.238281 3.226562 -6.390625 3.8125 -6.390625 C 4.320312 -6.390625 4.785156 -6.28125 5.203125 -6.0625 C 5.628906 -5.84375 5.992188 -5.519531 6.296875 -5.09375 L 6.296875 -6.234375 L 7.09375 -6.234375 L 7.09375 0 L 6.296875 0 L 6.296875 -1.0625 C 5.960938 -0.65625 5.582031 -0.347656 5.15625 -0.140625 C 4.738281 0.0546875 4.285156 0.15625 3.796875 0.15625 Z M 3.875 -0.578125 C 4.300781 -0.578125 4.707031 -0.679688 5.09375 -0.890625 C 5.476562 -1.097656 5.785156 -1.390625 6.015625 -1.765625 C 6.242188 -2.140625 6.359375 -2.582031 6.359375 -3.09375 C 6.359375 -3.5625 6.25 -3.988281 6.03125 -4.375 C 5.8125 -4.757812 5.515625 -5.0625 5.140625 -5.28125 C 4.765625 -5.507812 4.347656 -5.625 3.890625 -5.625 C 3.421875 -5.625 2.992188 -5.503906 2.609375 -5.265625 C 2.234375 -5.035156 1.941406 -4.726562 1.734375 -4.34375 C 1.523438 -3.96875 1.421875 -3.554688 1.421875 -3.109375 C 1.421875 -2.660156 1.523438 -2.242188 1.734375 -1.859375 C 1.953125 -1.472656 2.25 -1.160156 2.625 -0.921875 C 3 -0.691406 3.414062 -0.578125 3.875 -0.578125 Z M 3.875 -0.578125 "/></g></g></g><g fill="#00467f" fill-opacity="1"><g transform="translate(391.984411, 87.2026)"><g><path d="M 2.234375 0.171875 C 1.890625 0.171875 1.550781 0.09375 1.21875 -0.0625 C 0.894531 -0.226562 0.625 -0.453125 0.40625 -0.734375 L 0.90625 -1.296875 C 1.320312 -0.835938 1.753906 -0.609375 2.203125 -0.609375 C 2.410156 -0.609375 2.601562 -0.648438 2.78125 -0.734375 C 2.957031 -0.828125 3.097656 -0.953125 3.203125 -1.109375 C 3.304688 -1.273438 3.359375 -1.453125 3.359375 -1.640625 C 3.359375 -1.847656 3.304688 -2.023438 3.203125 -2.171875 C 3.097656 -2.328125 2.925781 -2.46875 2.6875 -2.59375 C 2.195312 -2.863281 1.820312 -3.082031 1.5625 -3.25 C 1.300781 -3.425781 1.085938 -3.632812 0.921875 -3.875 C 0.765625 -4.113281 0.6875 -4.398438 0.6875 -4.734375 C 0.6875 -5.054688 0.757812 -5.34375 0.90625 -5.59375 C 1.0625 -5.84375 1.269531 -6.035156 1.53125 -6.171875 C 1.789062 -6.316406 2.078125 -6.390625 2.390625 -6.390625 C 2.710938 -6.390625 3.007812 -6.316406 3.28125 -6.171875 C 3.5625 -6.035156 3.84375 -5.828125 4.125 -5.546875 L 3.609375 -5.015625 C 3.398438 -5.210938 3.195312 -5.363281 3 -5.46875 C 2.800781 -5.570312 2.582031 -5.625 2.34375 -5.625 C 2.175781 -5.625 2.019531 -5.582031 1.875 -5.5 C 1.738281 -5.425781 1.625 -5.328125 1.53125 -5.203125 C 1.445312 -5.078125 1.40625 -4.9375 1.40625 -4.78125 C 1.40625 -4.570312 1.46875 -4.390625 1.59375 -4.234375 C 1.71875 -4.078125 1.910156 -3.929688 2.171875 -3.796875 C 2.671875 -3.515625 3.046875 -3.285156 3.296875 -3.109375 C 3.554688 -2.929688 3.757812 -2.726562 3.90625 -2.5 C 4.050781 -2.28125 4.125 -2.003906 4.125 -1.671875 C 4.125 -1.347656 4.046875 -1.046875 3.890625 -0.765625 C 3.734375 -0.484375 3.507812 -0.253906 3.21875 -0.078125 C 2.9375 0.0859375 2.609375 0.171875 2.234375 0.171875 Z M 2.234375 0.171875 "/></g></g></g><g fill="#00467f" fill-opacity="1"><g transform="translate(397.633981, 87.2026)"><g><path d="M 1.734375 -6.234375 L 1.734375 -5.15625 C 2.015625 -5.5625 2.332031 -5.867188 2.6875 -6.078125 C 3.039062 -6.285156 3.4375 -6.390625 3.875 -6.390625 C 4.351562 -6.390625 4.753906 -6.265625 5.078125 -6.015625 C 5.410156 -5.765625 5.664062 -5.390625 5.84375 -4.890625 C 6.113281 -5.378906 6.445312 -5.75 6.84375 -6 C 7.238281 -6.257812 7.664062 -6.390625 8.125 -6.390625 C 8.5625 -6.390625 8.9375 -6.285156 9.25 -6.078125 C 9.570312 -5.878906 9.816406 -5.578125 9.984375 -5.171875 C 10.160156 -4.765625 10.25 -4.273438 10.25 -3.703125 L 10.25 0 L 9.453125 0 L 9.453125 -3.859375 C 9.453125 -4.410156 9.328125 -4.84375 9.078125 -5.15625 C 8.835938 -5.46875 8.472656 -5.625 7.984375 -5.625 C 7.585938 -5.625 7.238281 -5.515625 6.9375 -5.296875 C 6.632812 -5.078125 6.398438 -4.773438 6.234375 -4.390625 C 6.066406 -4.003906 5.984375 -3.5625 5.984375 -3.0625 L 5.984375 0 L 5.1875 0 L 5.1875 -3.46875 C 5.1875 -4.1875 5.070312 -4.722656 4.84375 -5.078125 C 4.625 -5.441406 4.25 -5.625 3.71875 -5.625 C 3.3125 -5.625 2.957031 -5.515625 2.65625 -5.296875 C 2.363281 -5.078125 2.132812 -4.765625 1.96875 -4.359375 C 1.8125 -3.953125 1.734375 -3.484375 1.734375 -2.953125 L 1.734375 0 L 0.9375 0 L 0.9375 -6.234375 Z M 1.734375 -6.234375 "/></g></g></g><g fill="#00467f" fill-opacity="1"><g transform="translate(409.799176, 87.2026)"><g><path d="M 3.796875 0.15625 C 3.191406 0.15625 2.644531 0.0078125 2.15625 -0.28125 C 1.675781 -0.582031 1.296875 -0.984375 1.015625 -1.484375 C 0.734375 -1.992188 0.59375 -2.546875 0.59375 -3.140625 C 0.59375 -3.722656 0.734375 -4.257812 1.015625 -4.75 C 1.304688 -5.25 1.695312 -5.644531 2.1875 -5.9375 C 2.6875 -6.238281 3.226562 -6.390625 3.8125 -6.390625 C 4.320312 -6.390625 4.785156 -6.28125 5.203125 -6.0625 C 5.628906 -5.84375 5.992188 -5.519531 6.296875 -5.09375 L 6.296875 -6.234375 L 7.09375 -6.234375 L 7.09375 0 L 6.296875 0 L 6.296875 -1.0625 C 5.960938 -0.65625 5.582031 -0.347656 5.15625 -0.140625 C 4.738281 0.0546875 4.285156 0.15625 3.796875 0.15625 Z M 3.875 -0.578125 C 4.300781 -0.578125 4.707031 -0.679688 5.09375 -0.890625 C 5.476562 -1.097656 5.785156 -1.390625 6.015625 -1.765625 C 6.242188 -2.140625 6.359375 -2.582031 6.359375 -3.09375 C 6.359375 -3.5625 6.25 -3.988281 6.03125 -4.375 C 5.8125 -4.757812 5.515625 -5.0625 5.140625 -5.28125 C 4.765625 -5.507812 4.347656 -5.625 3.890625 -5.625 C 3.421875 -5.625 2.992188 -5.503906 2.609375 -5.265625 C 2.234375 -5.035156 1.941406 -4.726562 1.734375 -4.34375 C 1.523438 -3.96875 1.421875 -3.554688 1.421875 -3.109375 C 1.421875 -2.660156 1.523438 -2.242188 1.734375 -1.859375 C 1.953125 -1.472656 2.25 -1.160156 2.625 -0.921875 C 3 -0.691406 3.414062 -0.578125 3.875 -0.578125 Z M 3.875 -0.578125 "/></g></g></g><g fill="#00467f" fill-opacity="1"><g transform="translate(418.917496, 87.2026)"><g><path d="M 1.734375 -6.234375 L 1.734375 -5.109375 C 2.378906 -5.960938 3.160156 -6.390625 4.078125 -6.390625 C 4.535156 -6.390625 4.9375 -6.28125 5.28125 -6.0625 C 5.632812 -5.851562 5.90625 -5.53125 6.09375 -5.09375 C 6.289062 -4.664062 6.390625 -4.132812 6.390625 -3.5 L 6.390625 0 L 5.578125 0 L 5.578125 -3.390625 C 5.578125 -4.148438 5.445312 -4.71875 5.1875 -5.09375 C 4.925781 -5.476562 4.503906 -5.671875 3.921875 -5.671875 C 3.535156 -5.671875 3.175781 -5.5625 2.84375 -5.34375 C 2.507812 -5.132812 2.238281 -4.828125 2.03125 -4.421875 C 1.832031 -4.023438 1.734375 -3.550781 1.734375 -3 L 1.734375 0 L 0.9375 0 L 0.9375 -6.234375 Z M 1.734375 -6.234375 "/></g></g></g><g fill="#00467f" fill-opacity="1"><g transform="translate(283.769665, 72.643238)"><g><path d="M 17.734375 0.6875 C 14.617188 0.6875 11.882812 0.015625 9.53125 -1.328125 C 7.175781 -2.679688 5.375 -4.515625 4.125 -6.828125 C 2.875 -9.140625 2.25 -11.707031 2.25 -14.53125 C 2.25 -17.332031 2.914062 -19.867188 4.25 -22.140625 C 5.582031 -24.410156 7.425781 -26.195312 9.78125 -27.5 C 12.144531 -28.8125 14.796875 -29.46875 17.734375 -29.46875 C 20.359375 -29.46875 22.738281 -28.953125 24.875 -27.921875 C 27.007812 -26.898438 28.769531 -25.398438 30.15625 -23.421875 L 27.875 -21.703125 C 26.644531 -23.328125 25.164062 -24.5625 23.4375 -25.40625 C 21.71875 -26.25 19.832031 -26.671875 17.78125 -26.671875 C 15.507812 -26.671875 13.421875 -26.140625 11.515625 -25.078125 C 9.609375 -24.023438 8.085938 -22.554688 6.953125 -20.671875 C 5.816406 -18.796875 5.25 -16.671875 5.25 -14.296875 C 5.25 -11.941406 5.800781 -9.832031 6.90625 -7.96875 C 8.007812 -6.101562 9.53125 -4.632812 11.46875 -3.5625 C 13.40625 -2.5 15.5625 -1.96875 17.9375 -1.96875 C 19.9375 -1.96875 21.785156 -2.363281 23.484375 -3.15625 C 25.179688 -3.957031 26.695312 -5.148438 28.03125 -6.734375 L 30.3125 -5 C 28.84375 -3.132812 27.035156 -1.71875 24.890625 -0.75 C 22.742188 0.207031 20.359375 0.6875 17.734375 0.6875 Z M 17.734375 0.6875 "/></g></g></g><g fill="#00467f" fill-opacity="1"><g transform="translate(316.765326, 72.643238)"><g><path d="M 13.140625 0.5625 C 11.054688 0.5625 9.164062 0.0625 7.46875 -0.9375 C 5.769531 -1.9375 4.441406 -3.289062 3.484375 -5 C 2.523438 -6.707031 2.046875 -8.566406 2.046875 -10.578125 C 2.046875 -12.578125 2.523438 -14.441406 3.484375 -16.171875 C 4.441406 -17.910156 5.769531 -19.285156 7.46875 -20.296875 C 9.164062 -21.316406 11.054688 -21.828125 13.140625 -21.828125 C 15.222656 -21.828125 17.109375 -21.316406 18.796875 -20.296875 C 20.492188 -19.285156 21.820312 -17.910156 22.78125 -16.171875 C 23.75 -14.441406 24.234375 -12.578125 24.234375 -10.578125 C 24.234375 -8.566406 23.75 -6.707031 22.78125 -5 C 21.820312 -3.289062 20.492188 -1.9375 18.796875 -0.9375 C 17.109375 0.0625 15.222656 0.5625 13.140625 0.5625 Z M 13.140625 -2.078125 C 14.679688 -2.078125 16.085938 -2.457031 17.359375 -3.21875 C 18.628906 -3.976562 19.625 -5.003906 20.34375 -6.296875 C 21.0625 -7.597656 21.421875 -9.007812 21.421875 -10.53125 C 21.421875 -12.082031 21.046875 -13.515625 20.296875 -14.828125 C 19.554688 -16.148438 18.550781 -17.207031 17.28125 -18 C 16.007812 -18.789062 14.628906 -19.1875 13.140625 -19.1875 C 11.640625 -19.1875 10.253906 -18.789062 8.984375 -18 C 7.722656 -17.207031 6.71875 -16.148438 5.96875 -14.828125 C 5.21875 -13.515625 4.84375 -12.082031 4.84375 -10.53125 C 4.84375 -8.976562 5.203125 -7.5625 5.921875 -6.28125 C 6.648438 -5 7.640625 -3.976562 8.890625 -3.21875 C 10.140625 -2.457031 11.554688 -2.078125 13.140625 -2.078125 Z M 13.140625 -2.078125 "/></g></g></g><g fill="#00467f" fill-opacity="1"><g transform="translate(344.19513, 72.643238)"><g><path d="M 5.921875 -21.265625 L 5.921875 -17.453125 C 8.140625 -20.367188 10.796875 -21.828125 13.890625 -21.828125 C 15.472656 -21.828125 16.859375 -21.457031 18.046875 -20.71875 C 19.234375 -19.988281 20.148438 -18.878906 20.796875 -17.390625 C 21.453125 -15.910156 21.78125 -14.09375 21.78125 -11.9375 L 21.78125 0 L 19.0625 0 L 19.0625 -11.578125 C 19.0625 -14.160156 18.613281 -16.097656 17.71875 -17.390625 C 16.820312 -18.691406 15.375 -19.34375 13.375 -19.34375 C 12.0625 -19.34375 10.835938 -18.984375 9.703125 -18.265625 C 8.578125 -17.546875 7.664062 -16.5 6.96875 -15.125 C 6.269531 -13.75 5.921875 -12.113281 5.921875 -10.21875 L 5.921875 0 L 3.203125 0 L 3.203125 -21.265625 Z M 5.921875 -21.265625 "/></g></g></g><g fill="#00467f" fill-opacity="1"><g transform="translate(369.983176, 72.643238)"><g><path d="M 5.921875 -21.265625 L 5.921875 -17.453125 C 8.140625 -20.367188 10.796875 -21.828125 13.890625 -21.828125 C 15.472656 -21.828125 16.859375 -21.457031 18.046875 -20.71875 C 19.234375 -19.988281 20.148438 -18.878906 20.796875 -17.390625 C 21.453125 -15.910156 21.78125 -14.09375 21.78125 -11.9375 L 21.78125 0 L 19.0625 0 L 19.0625 -11.578125 C 19.0625 -14.160156 18.613281 -16.097656 17.71875 -17.390625 C 16.820312 -18.691406 15.375 -19.34375 13.375 -19.34375 C 12.0625 -19.34375 10.835938 -18.984375 9.703125 -18.265625 C 8.578125 -17.546875 7.664062 -16.5 6.96875 -15.125 C 6.269531 -13.75 5.921875 -12.113281 5.921875 -10.21875 L 5.921875 0 L 3.203125 0 L 3.203125 -21.265625 Z M 5.921875 -21.265625 "/></g></g></g><g fill="#00467f" fill-opacity="1"><g transform="translate(395.771223, 72.643238)"><g><path d="M 13.140625 0.515625 C 10.835938 0.515625 8.851562 0.015625 7.1875 -0.984375 C 5.519531 -1.984375 4.242188 -3.328125 3.359375 -5.015625 C 2.484375 -6.710938 2.046875 -8.566406 2.046875 -10.578125 C 2.046875 -12.523438 2.5 -14.359375 3.40625 -16.078125 C 4.3125 -17.796875 5.597656 -19.179688 7.265625 -20.234375 C 8.929688 -21.296875 10.832031 -21.828125 12.96875 -21.828125 C 15.03125 -21.828125 16.898438 -21.34375 18.578125 -20.375 C 20.265625 -19.414062 21.585938 -18.082031 22.546875 -16.375 C 23.503906 -14.664062 23.984375 -12.742188 23.984375 -10.609375 L 23.984375 -10.40625 L 4.84375 -10.40625 C 4.894531 -8.78125 5.273438 -7.335938 5.984375 -6.078125 C 6.691406 -4.828125 7.660156 -3.851562 8.890625 -3.15625 C 10.117188 -2.46875 11.535156 -2.125 13.140625 -2.125 C 15.035156 -2.125 16.582031 -2.5625 17.78125 -3.4375 C 18.976562 -4.320312 20.046875 -5.523438 20.984375 -7.046875 L 23.265625 -5.84375 C 22.222656 -3.84375 20.84375 -2.28125 19.125 -1.15625 C 17.40625 -0.0390625 15.410156 0.515625 13.140625 0.515625 Z M 20.984375 -12.8125 C 20.453125 -14.925781 19.472656 -16.515625 18.046875 -17.578125 C 16.617188 -18.648438 14.941406 -19.1875 13.015625 -19.1875 C 11.066406 -19.1875 9.414062 -18.65625 8.0625 -17.59375 C 6.71875 -16.539062 5.738281 -14.945312 5.125 -12.8125 Z M 20.984375 -12.8125 "/></g></g></g><g fill="#00467f" fill-opacity="1"><g transform="translate(422.600315, 72.643238)"><g><path d="M 13.296875 0.5625 C 11.128906 0.5625 9.191406 0.0664062 7.484375 -0.921875 C 5.773438 -1.910156 4.441406 -3.257812 3.484375 -4.96875 C 2.523438 -6.675781 2.046875 -8.570312 2.046875 -10.65625 C 2.046875 -12.757812 2.53125 -14.660156 3.5 -16.359375 C 4.476562 -18.054688 5.832031 -19.390625 7.5625 -20.359375 C 9.300781 -21.335938 11.238281 -21.828125 13.375 -21.828125 C 15.40625 -21.828125 17.253906 -21.414062 18.921875 -20.59375 C 20.585938 -19.78125 21.929688 -18.65625 22.953125 -17.21875 L 20.9375 -15.5 C 19.925781 -16.726562 18.800781 -17.648438 17.5625 -18.265625 C 16.320312 -18.878906 14.882812 -19.1875 13.25 -19.1875 C 11.65625 -19.1875 10.222656 -18.8125 8.953125 -18.0625 C 7.679688 -17.3125 6.675781 -16.289062 5.9375 -15 C 5.207031 -13.707031 4.84375 -12.257812 4.84375 -10.65625 C 4.84375 -9 5.203125 -7.515625 5.921875 -6.203125 C 6.648438 -4.898438 7.660156 -3.882812 8.953125 -3.15625 C 10.242188 -2.4375 11.691406 -2.078125 13.296875 -2.078125 C 16.390625 -2.078125 18.9375 -3.28125 20.9375 -5.6875 L 22.984375 -4.078125 C 21.835938 -2.609375 20.441406 -1.46875 18.796875 -0.65625 C 17.160156 0.15625 15.328125 0.5625 13.296875 0.5625 Z M 13.296875 0.5625 "/></g></g></g><g fill="#00467f" fill-opacity="1"><g transform="translate(448.348284, 72.643238)"><g><path d="M 5.484375 -18.859375 L 1.71875 -18.859375 L 1.71875 -21.265625 L 5.484375 -21.265625 L 5.484375 -29.1875 L 8.203125 -29.1875 L 8.203125 -21.265625 L 12.578125 -21.265625 L 12.578125 -18.859375 L 8.203125 -18.859375 L 8.203125 0 L 5.484375 0 Z M 5.484375 -18.859375 "/></g></g></g></svg>