<svg xmlns="http://www.w3.org/2000/svg" xmlns:xlink="http://www.w3.org/1999/xlink" width="672" zoomAndPan="magnify" viewBox="0 0 504 125.999998" height="168" preserveAspectRatio="xMidYMid meet" version="1.0"><defs><g/><clipPath id="667c0e4aea"><rect x="0" width="123" y="0" height="13"/></clipPath></defs><path stroke-linecap="butt" transform="matrix(0, 0.75, -0.75, 0, 316.301237, 45.19211)" fill="none" stroke-linejoin="miter" d="M -0.000938066 0.500608 L 32.754272 0.500608 " stroke="#00467f" stroke-width="1" stroke-opacity="1" stroke-miterlimit="4"/><g transform="matrix(1, 0, 0, 1, 189, 68)"><g clip-path="url(#667c0e4aea)"><g fill="#00467f" fill-opacity="1"><g transform="translate(1.070067, 9.346292)"><g><path d="M 2.3125 -5.6875 C 2.957031 -5.6875 3.441406 -5.550781 3.765625 -5.28125 C 4.085938 -5.007812 4.25 -4.640625 4.25 -4.171875 C 4.25 -3.835938 4.164062 -3.554688 4 -3.328125 C 3.84375 -3.097656 3.613281 -2.925781 3.3125 -2.8125 C 3.019531 -2.695312 2.675781 -2.640625 2.28125 -2.640625 L 4.328125 0 L 3.625 0 L 1.609375 -2.640625 L 1.265625 -2.640625 L 1.265625 0 L 0.6875 0 L 0.6875 -5.6875 Z M 2.28125 -3.203125 C 2.71875 -3.203125 3.054688 -3.28125 3.296875 -3.4375 C 3.535156 -3.59375 3.65625 -3.835938 3.65625 -4.171875 C 3.65625 -4.460938 3.550781 -4.695312 3.34375 -4.875 C 3.144531 -5.050781 2.835938 -5.140625 2.421875 -5.140625 L 1.265625 -5.140625 L 1.265625 -3.203125 Z M 2.28125 -3.203125 "/></g></g></g><g fill="#00467f" fill-opacity="1"><g transform="translate(8.372062, 9.346292)"><g/></g></g><g fill="#00467f" fill-opacity="1"><g transform="translate(13.17933, 9.346292)"><g><path d="M 0.6875 -5.6875 L 3.9375 -5.6875 L 3.9375 -5.140625 L 1.265625 -5.140625 L 1.265625 -3.34375 L 3.9375 -3.34375 L 3.9375 -2.796875 L 1.265625 -2.796875 L 1.265625 -0.546875 L 3.9375 -0.546875 L 3.9375 0 L 0.6875 0 Z M 0.6875 -5.6875 "/></g></g></g><g fill="#00467f" fill-opacity="1"><g transform="translate(20.029898, 9.346292)"><g/></g></g><g fill="#00467f" fill-opacity="1"><g transform="translate(24.837166, 9.346292)"><g><path d="M 4.875 0 L 4 -1.875 L 1.5 -1.875 L 0.640625 0 L 0.046875 0 L 2.6875 -5.6875 L 2.828125 -5.6875 L 5.46875 0 Z M 1.765625 -2.40625 L 3.75 -2.40625 L 2.75 -4.546875 Z M 1.765625 -2.40625 "/></g></g></g><g fill="#00467f" fill-opacity="1"><g transform="translate(32.796498, 9.346292)"><g/></g></g><g fill="#00467f" fill-opacity="1"><g transform="translate(37.603766, 9.346292)"><g><path d="M 1.265625 -5.6875 L 1.265625 -0.546875 L 3.453125 -0.546875 L 3.453125 0 L 0.6875 0 L 0.6875 -5.6875 Z M 1.265625 -5.6875 "/></g></g></g><g fill="#00467f" fill-opacity="1"><g transform="translate(43.720975, 9.346292)"><g/></g></g><g fill="#00467f" fill-opacity="1"><g transform="translate(48.528243, 9.346292)"><g/></g></g><g fill="#00467f" fill-opacity="1"><g transform="translate(53.335512, 9.346292)"><g/></g></g><g fill="#00467f" fill-opacity="1"><g transform="translate(58.147624, 9.346292)"><g><path d="M 0.6875 -5.6875 L 3.9375 -5.6875 L 3.9375 -5.140625 L 1.265625 -5.140625 L 1.265625 -3.34375 L 3.9375 -3.34375 L 3.9375 -2.796875 L 1.265625 -2.796875 L 1.265625 -0.546875 L 3.9375 -0.546875 L 3.9375 0 L 0.6875 0 Z M 0.6875 -5.6875 "/></g></g></g><g fill="#00467f" fill-opacity="1"><g transform="translate(69.80546, 9.346292)"><g><path d="M 1.921875 0.140625 C 1.535156 0.140625 1.203125 0.0390625 0.921875 -0.15625 C 0.648438 -0.351562 0.410156 -0.65625 0.203125 -1.0625 L 0.6875 -1.359375 C 0.851562 -1.046875 1.035156 -0.804688 1.234375 -0.640625 C 1.429688 -0.484375 1.644531 -0.40625 1.875 -0.40625 C 2.0625 -0.40625 2.234375 -0.445312 2.390625 -0.53125 C 2.554688 -0.625 2.6875 -0.742188 2.78125 -0.890625 C 2.875 -1.035156 2.921875 -1.195312 2.921875 -1.375 C 2.921875 -1.550781 2.867188 -1.710938 2.765625 -1.859375 C 2.671875 -2.015625 2.53125 -2.171875 2.34375 -2.328125 C 2.164062 -2.492188 1.847656 -2.757812 1.390625 -3.125 C 1.179688 -3.289062 1.019531 -3.4375 0.90625 -3.5625 C 0.789062 -3.6875 0.703125 -3.820312 0.640625 -3.96875 C 0.585938 -4.113281 0.5625 -4.289062 0.5625 -4.5 C 0.5625 -4.75 0.617188 -4.972656 0.734375 -5.171875 C 0.859375 -5.378906 1.023438 -5.539062 1.234375 -5.65625 C 1.453125 -5.769531 1.6875 -5.828125 1.9375 -5.828125 C 2.257812 -5.828125 2.535156 -5.742188 2.765625 -5.578125 C 2.992188 -5.421875 3.21875 -5.195312 3.4375 -4.90625 L 2.96875 -4.546875 C 2.84375 -4.703125 2.734375 -4.828125 2.640625 -4.921875 C 2.546875 -5.015625 2.4375 -5.09375 2.3125 -5.15625 C 2.195312 -5.21875 2.066406 -5.25 1.921875 -5.25 C 1.765625 -5.25 1.628906 -5.210938 1.515625 -5.140625 C 1.398438 -5.078125 1.3125 -4.988281 1.25 -4.875 C 1.1875 -4.769531 1.15625 -4.648438 1.15625 -4.515625 C 1.15625 -4.335938 1.207031 -4.171875 1.3125 -4.015625 C 1.414062 -3.859375 1.570312 -3.707031 1.78125 -3.5625 C 2.195312 -3.257812 2.519531 -3.003906 2.75 -2.796875 C 2.976562 -2.597656 3.160156 -2.382812 3.296875 -2.15625 C 3.441406 -1.925781 3.515625 -1.671875 3.515625 -1.390625 C 3.515625 -1.117188 3.441406 -0.863281 3.296875 -0.625 C 3.160156 -0.394531 2.972656 -0.207031 2.734375 -0.0625 C 2.492188 0.0703125 2.222656 0.140625 1.921875 0.140625 Z M 1.921875 0.140625 "/></g></g></g><g fill="#00467f" fill-opacity="1"><g transform="translate(76.275879, 9.346292)"><g/></g></g><g fill="#00467f" fill-opacity="1"><g transform="translate(81.083147, 9.346292)"><g><path d="M 1.40625 -5.140625 L 0.125 -5.140625 L 0.125 -5.6875 L 3.25 -5.6875 L 3.25 -5.140625 L 1.984375 -5.140625 L 1.984375 0 L 1.40625 0 Z M 1.40625 -5.140625 "/></g></g></g><g fill="#00467f" fill-opacity="1"><g transform="translate(86.91206, 9.346292)"><g/></g></g><g fill="#00467f" fill-opacity="1"><g transform="translate(91.719329, 9.346292)"><g><path d="M 4.875 0 L 4 -1.875 L 1.5 -1.875 L 0.640625 0 L 0.046875 0 L 2.6875 -5.6875 L 2.828125 -5.6875 L 5.46875 0 Z M 1.765625 -2.40625 L 3.75 -2.40625 L 2.75 -4.546875 Z M 1.765625 -2.40625 "/></g></g></g><g fill="#00467f" fill-opacity="1"><g transform="translate(99.67866, 9.346292)"><g/></g></g><g fill="#00467f" fill-opacity="1"><g transform="translate(104.485928, 9.346292)"><g><path d="M 1.40625 -5.140625 L 0.125 -5.140625 L 0.125 -5.6875 L 3.25 -5.6875 L 3.25 -5.140625 L 1.984375 -5.140625 L 1.984375 0 L 1.40625 0 Z M 1.40625 -5.140625 "/></g></g></g><g fill="#00467f" fill-opacity="1"><g transform="translate(110.314841, 9.346292)"><g/></g></g><g fill="#00467f" fill-opacity="1"><g transform="translate(115.12211, 9.346292)"><g><path d="M 0.6875 -5.6875 L 3.9375 -5.6875 L 3.9375 -5.140625 L 1.265625 -5.140625 L 1.265625 -3.34375 L 3.9375 -3.34375 L 3.9375 -2.796875 L 1.265625 -2.796875 L 1.265625 -0.546875 L 3.9375 -0.546875 L 3.9375 0 L 0.6875 0 Z M 0.6875 -5.6875 "/></g></g></g></g></g><g fill="#00467f" fill-opacity="1"><g transform="translate(122.633333, 66.959985)"><g><path d="M 0.234375 -14.15625 L 0.234375 -17.984375 L 1.859375 -17.984375 L 1.859375 -19.078125 C 1.859375 -20.703125 1.976562 -21.957031 2.21875 -22.84375 C 2.457031 -23.738281 2.882812 -24.390625 3.5 -24.796875 C 4.125 -25.203125 5.035156 -25.40625 6.234375 -25.40625 C 7.316406 -25.40625 8.378906 -25.191406 9.421875 -24.765625 L 9.421875 -21.3125 C 8.765625 -21.507812 8.222656 -21.609375 7.796875 -21.609375 C 7.359375 -21.609375 7.046875 -21.550781 6.859375 -21.4375 C 6.671875 -21.332031 6.539062 -21.128906 6.46875 -20.828125 C 6.40625 -20.535156 6.375 -20.0625 6.375 -19.40625 L 6.375 -17.984375 L 9.21875 -17.984375 L 9.21875 -14.15625 L 6.375 -14.15625 L 6.375 0 L 1.859375 0 L 1.859375 -14.15625 Z M 0.234375 -14.15625 "/></g></g></g><g fill="#00467f" fill-opacity="1"><g transform="translate(132.116147, 66.959985)"><g><path d="M 4.546875 -19.546875 C 3.992188 -19.546875 3.5 -19.6875 3.0625 -19.96875 C 2.625 -20.25 2.28125 -20.628906 2.03125 -21.109375 C 1.78125 -21.597656 1.65625 -22.113281 1.65625 -22.65625 C 1.65625 -23.15625 1.785156 -23.617188 2.046875 -24.046875 C 2.304688 -24.472656 2.65625 -24.804688 3.09375 -25.046875 C 3.539062 -25.285156 4.023438 -25.40625 4.546875 -25.40625 C 5.085938 -25.40625 5.570312 -25.269531 6 -25 C 6.425781 -24.726562 6.769531 -24.363281 7.03125 -23.90625 C 7.289062 -23.457031 7.421875 -22.960938 7.421875 -22.421875 C 7.421875 -21.898438 7.289062 -21.421875 7.03125 -20.984375 C 6.769531 -20.546875 6.414062 -20.195312 5.96875 -19.9375 C 5.53125 -19.675781 5.054688 -19.546875 4.546875 -19.546875 Z M 2.296875 -17.984375 L 6.8125 -17.984375 L 6.8125 0 L 2.296875 0 Z M 2.296875 -17.984375 "/></g></g></g><g fill="#00467f" fill-opacity="1"><g transform="translate(141.192547, 66.959985)"><g><path d="M 6.171875 -17.984375 L 6.171875 -15.71875 C 6.578125 -16.625 7.117188 -17.304688 7.796875 -17.765625 C 8.472656 -18.234375 9.191406 -18.46875 9.953125 -18.46875 C 10.679688 -18.46875 11.335938 -18.304688 11.921875 -17.984375 L 10.53125 -14.125 C 10.039062 -14.375 9.601562 -14.5 9.21875 -14.5 C 8.46875 -14.5 7.875 -14.066406 7.4375 -13.203125 C 7 -12.347656 6.78125 -11.0625 6.78125 -9.34375 L 6.78125 0 L 2.265625 0 L 2.265625 -17.984375 Z M 6.171875 -17.984375 "/></g></g></g><g fill="#00467f" fill-opacity="1"><g transform="translate(152.571762, 66.959985)"><g><path d="M 7.140625 0.46875 C 5.835938 0.46875 4.660156 0.210938 3.609375 -0.296875 C 2.554688 -0.816406 1.632812 -1.585938 0.84375 -2.609375 L 3.625 -5.65625 C 4.164062 -5.050781 4.78125 -4.550781 5.46875 -4.15625 C 6.15625 -3.757812 6.796875 -3.5625 7.390625 -3.5625 C 7.953125 -3.5625 8.425781 -3.703125 8.8125 -3.984375 C 9.195312 -4.265625 9.390625 -4.609375 9.390625 -5.015625 C 9.390625 -5.285156 9.304688 -5.523438 9.140625 -5.734375 C 8.984375 -5.953125 8.726562 -6.179688 8.375 -6.421875 C 8.03125 -6.660156 7.519531 -6.945312 6.84375 -7.28125 C 5.507812 -7.957031 4.460938 -8.585938 3.703125 -9.171875 C 2.953125 -9.765625 2.398438 -10.378906 2.046875 -11.015625 C 1.703125 -11.660156 1.53125 -12.414062 1.53125 -13.28125 C 1.53125 -14.207031 1.773438 -15.070312 2.265625 -15.875 C 2.765625 -16.675781 3.453125 -17.304688 4.328125 -17.765625 C 5.210938 -18.234375 6.21875 -18.46875 7.34375 -18.46875 C 8.519531 -18.46875 9.617188 -18.210938 10.640625 -17.703125 C 11.671875 -17.191406 12.550781 -16.453125 13.28125 -15.484375 L 10.5 -12.671875 C 9.957031 -13.210938 9.429688 -13.625 8.921875 -13.90625 C 8.410156 -14.1875 7.898438 -14.328125 7.390625 -14.328125 C 6.910156 -14.328125 6.519531 -14.226562 6.21875 -14.03125 C 5.914062 -13.84375 5.765625 -13.582031 5.765625 -13.25 C 5.765625 -12.925781 5.882812 -12.660156 6.125 -12.453125 C 6.375 -12.253906 6.796875 -12.019531 7.390625 -11.75 C 8.941406 -11.007812 10.15625 -10.328125 11.03125 -9.703125 C 11.914062 -9.085938 12.566406 -8.421875 12.984375 -7.703125 C 13.410156 -6.992188 13.625 -6.144531 13.625 -5.15625 C 13.625 -4.09375 13.359375 -3.128906 12.828125 -2.265625 C 12.296875 -1.410156 11.535156 -0.738281 10.546875 -0.25 C 9.566406 0.226562 8.429688 0.46875 7.140625 0.46875 Z M 7.140625 0.46875 "/></g></g></g><g fill="#00467f" fill-opacity="1"><g transform="translate(167.473319, 66.959985)"><g><path d="M 2.8125 -14.09375 L 0.515625 -14.09375 L 0.515625 -17.984375 L 2.8125 -17.984375 L 2.8125 -24.625 L 7.3125 -24.625 L 7.3125 -17.984375 L 10 -17.984375 L 10 -14.09375 L 7.3125 -14.09375 L 7.3125 0 L 2.8125 0 Z M 2.8125 -14.09375 "/></g></g></g><g fill="#00467f" fill-opacity="1"><g transform="translate(177.633475, 66.959985)"><g><path d="M 6.78125 -17.984375 L 6.78125 -16.15625 C 7.695312 -16.925781 8.570312 -17.503906 9.40625 -17.890625 C 10.25 -18.273438 11.144531 -18.46875 12.09375 -18.46875 C 13.21875 -18.46875 14.25 -18.21875 15.1875 -17.71875 C 16.125 -17.21875 16.867188 -16.5 17.421875 -15.5625 C 17.984375 -14.625 18.265625 -13.535156 18.265625 -12.296875 L 18.265625 0 L 13.75 0 L 13.75 -8.5 C 13.75 -9.851562 13.679688 -10.9375 13.546875 -11.75 C 13.410156 -12.5625 13.125 -13.191406 12.6875 -13.640625 C 12.25 -14.097656 11.585938 -14.328125 10.703125 -14.328125 C 9.960938 -14.328125 9.289062 -14.117188 8.6875 -13.703125 C 8.09375 -13.285156 7.625 -12.671875 7.28125 -11.859375 C 6.945312 -11.046875 6.78125 -10.050781 6.78125 -8.875 L 6.78125 0 L 2.265625 0 L 2.265625 -17.984375 Z M 6.78125 -17.984375 "/></g></g></g><g fill="#00467f" fill-opacity="1"><g transform="translate(197.953786, 66.959985)"><g><path d="M 9.921875 0.46875 C 8.410156 0.46875 6.992188 0.0625 5.671875 -0.75 C 4.347656 -1.5625 3.296875 -2.6875 2.515625 -4.125 C 1.742188 -5.570312 1.359375 -7.191406 1.359375 -8.984375 C 1.359375 -10.804688 1.734375 -12.441406 2.484375 -13.890625 C 3.242188 -15.335938 4.265625 -16.460938 5.546875 -17.265625 C 6.835938 -18.066406 8.265625 -18.46875 9.828125 -18.46875 C 11.972656 -18.46875 13.859375 -17.648438 15.484375 -16.015625 L 15.484375 -17.984375 L 19.984375 -17.984375 L 19.984375 0 L 15.484375 0 L 15.484375 -1.890625 C 14.671875 -1.109375 13.816406 -0.519531 12.921875 -0.125 C 12.023438 0.269531 11.023438 0.46875 9.921875 0.46875 Z M 10.734375 -3.65625 C 11.660156 -3.65625 12.5 -3.875 13.25 -4.3125 C 14.007812 -4.757812 14.601562 -5.394531 15.03125 -6.21875 C 15.46875 -7.039062 15.6875 -7.984375 15.6875 -9.046875 C 15.6875 -10.085938 15.46875 -11.007812 15.03125 -11.8125 C 14.601562 -12.613281 14.015625 -13.234375 13.265625 -13.671875 C 12.523438 -14.109375 11.679688 -14.328125 10.734375 -14.328125 C 9.765625 -14.328125 8.910156 -14.085938 8.171875 -13.609375 C 7.441406 -13.140625 6.878906 -12.503906 6.484375 -11.703125 C 6.085938 -10.898438 5.890625 -10.003906 5.890625 -9.015625 C 5.890625 -7.992188 6.097656 -7.078125 6.515625 -6.265625 C 6.929688 -5.453125 7.503906 -4.8125 8.234375 -4.34375 C 8.972656 -3.882812 9.804688 -3.65625 10.734375 -3.65625 Z M 10.734375 -3.65625 "/></g></g></g><g fill="#00467f" fill-opacity="1"><g transform="translate(220.204521, 66.959985)"><g><path d="M 2.8125 -14.09375 L 0.515625 -14.09375 L 0.515625 -17.984375 L 2.8125 -17.984375 L 2.8125 -24.625 L 7.3125 -24.625 L 7.3125 -17.984375 L 10 -17.984375 L 10 -14.09375 L 7.3125 -14.09375 L 7.3125 0 L 2.8125 0 Z M 2.8125 -14.09375 "/></g></g></g><g fill="#00467f" fill-opacity="1"><g transform="translate(230.364676, 66.959985)"><g><path d="M 4.546875 -19.546875 C 3.992188 -19.546875 3.5 -19.6875 3.0625 -19.96875 C 2.625 -20.25 2.28125 -20.628906 2.03125 -21.109375 C 1.78125 -21.597656 1.65625 -22.113281 1.65625 -22.65625 C 1.65625 -23.15625 1.785156 -23.617188 2.046875 -24.046875 C 2.304688 -24.472656 2.65625 -24.804688 3.09375 -25.046875 C 3.539062 -25.285156 4.023438 -25.40625 4.546875 -25.40625 C 5.085938 -25.40625 5.570312 -25.269531 6 -25 C 6.425781 -24.726562 6.769531 -24.363281 7.03125 -23.90625 C 7.289062 -23.457031 7.421875 -22.960938 7.421875 -22.421875 C 7.421875 -21.898438 7.289062 -21.421875 7.03125 -20.984375 C 6.769531 -20.546875 6.414062 -20.195312 5.96875 -19.9375 C 5.53125 -19.675781 5.054688 -19.546875 4.546875 -19.546875 Z M 2.296875 -17.984375 L 6.8125 -17.984375 L 6.8125 0 L 2.296875 0 Z M 2.296875 -17.984375 "/></g></g></g><g fill="#00467f" fill-opacity="1"><g transform="translate(239.441077, 66.959985)"><g><path d="M 10.8125 0.46875 C 9.039062 0.46875 7.429688 0.046875 5.984375 -0.796875 C 4.546875 -1.640625 3.414062 -2.789062 2.59375 -4.25 C 1.769531 -5.707031 1.359375 -7.296875 1.359375 -9.015625 C 1.359375 -10.753906 1.785156 -12.34375 2.640625 -13.78125 C 3.492188 -15.226562 4.644531 -16.367188 6.09375 -17.203125 C 7.539062 -18.046875 9.113281 -18.46875 10.8125 -18.46875 C 12.5 -18.46875 14.066406 -18.046875 15.515625 -17.203125 C 16.960938 -16.367188 18.113281 -15.226562 18.96875 -13.78125 C 19.820312 -12.34375 20.25 -10.753906 20.25 -9.015625 C 20.25 -7.296875 19.835938 -5.707031 19.015625 -4.25 C 18.191406 -2.789062 17.054688 -1.640625 15.609375 -0.796875 C 14.171875 0.046875 12.570312 0.46875 10.8125 0.46875 Z M 10.8125 -3.796875 C 11.707031 -3.796875 12.535156 -4.007812 13.296875 -4.4375 C 14.054688 -4.863281 14.648438 -5.472656 15.078125 -6.265625 C 15.503906 -7.054688 15.71875 -7.960938 15.71875 -8.984375 C 15.71875 -9.992188 15.507812 -10.894531 15.09375 -11.6875 C 14.675781 -12.476562 14.09375 -13.09375 13.34375 -13.53125 C 12.601562 -13.96875 11.757812 -14.1875 10.8125 -14.1875 C 9.863281 -14.1875 9.015625 -13.96875 8.265625 -13.53125 C 7.515625 -13.09375 6.929688 -12.476562 6.515625 -11.6875 C 6.097656 -10.894531 5.890625 -9.992188 5.890625 -8.984375 C 5.890625 -7.960938 6.101562 -7.054688 6.53125 -6.265625 C 6.96875 -5.472656 7.5625 -4.863281 8.3125 -4.4375 C 9.070312 -4.007812 9.90625 -3.796875 10.8125 -3.796875 Z M 10.8125 -3.796875 "/></g></g></g><g fill="#00467f" fill-opacity="1"><g transform="translate(261.048333, 66.959985)"><g><path d="M 6.78125 -17.984375 L 6.78125 -16.15625 C 7.695312 -16.925781 8.570312 -17.503906 9.40625 -17.890625 C 10.25 -18.273438 11.144531 -18.46875 12.09375 -18.46875 C 13.21875 -18.46875 14.25 -18.21875 15.1875 -17.71875 C 16.125 -17.21875 16.867188 -16.5 17.421875 -15.5625 C 17.984375 -14.625 18.265625 -13.535156 18.265625 -12.296875 L 18.265625 0 L 13.75 0 L 13.75 -8.5 C 13.75 -9.851562 13.679688 -10.9375 13.546875 -11.75 C 13.410156 -12.5625 13.125 -13.191406 12.6875 -13.640625 C 12.25 -14.097656 11.585938 -14.328125 10.703125 -14.328125 C 9.960938 -14.328125 9.289062 -14.117188 8.6875 -13.703125 C 8.09375 -13.285156 7.625 -12.671875 7.28125 -11.859375 C 6.945312 -11.046875 6.78125 -10.050781 6.78125 -8.875 L 6.78125 0 L 2.265625 0 L 2.265625 -17.984375 Z M 6.78125 -17.984375 "/></g></g></g><g fill="#00467f" fill-opacity="1"><g transform="translate(281.368644, 66.959985)"><g><path d="M 9.921875 0.46875 C 8.410156 0.46875 6.992188 0.0625 5.671875 -0.75 C 4.347656 -1.5625 3.296875 -2.6875 2.515625 -4.125 C 1.742188 -5.570312 1.359375 -7.191406 1.359375 -8.984375 C 1.359375 -10.804688 1.734375 -12.441406 2.484375 -13.890625 C 3.242188 -15.335938 4.265625 -16.460938 5.546875 -17.265625 C 6.835938 -18.066406 8.265625 -18.46875 9.828125 -18.46875 C 11.972656 -18.46875 13.859375 -17.648438 15.484375 -16.015625 L 15.484375 -17.984375 L 19.984375 -17.984375 L 19.984375 0 L 15.484375 0 L 15.484375 -1.890625 C 14.671875 -1.109375 13.816406 -0.519531 12.921875 -0.125 C 12.023438 0.269531 11.023438 0.46875 9.921875 0.46875 Z M 10.734375 -3.65625 C 11.660156 -3.65625 12.5 -3.875 13.25 -4.3125 C 14.007812 -4.757812 14.601562 -5.394531 15.03125 -6.21875 C 15.46875 -7.039062 15.6875 -7.984375 15.6875 -9.046875 C 15.6875 -10.085938 15.46875 -11.007812 15.03125 -11.8125 C 14.601562 -12.613281 14.015625 -13.234375 13.265625 -13.671875 C 12.523438 -14.109375 11.679688 -14.328125 10.734375 -14.328125 C 9.765625 -14.328125 8.910156 -14.085938 8.171875 -13.609375 C 7.441406 -13.140625 6.878906 -12.503906 6.484375 -11.703125 C 6.085938 -10.898438 5.890625 -10.003906 5.890625 -9.015625 C 5.890625 -7.992188 6.097656 -7.078125 6.515625 -6.265625 C 6.929688 -5.453125 7.503906 -4.8125 8.234375 -4.34375 C 8.972656 -3.882812 9.804688 -3.65625 10.734375 -3.65625 Z M 10.734375 -3.65625 "/></g></g></g><g fill="#00467f" fill-opacity="1"><g transform="translate(303.619379, 66.959985)"><g><path d="M 6.328125 -24.9375 L 6.328125 0 L 1.828125 0 L 1.828125 -24.9375 Z M 6.328125 -24.9375 "/></g></g></g><g fill="#00467f" fill-opacity="1"><g transform="translate(346.701341, 84.898408)"><g><path d="M 6.78125 -8.421875 L 7.625 -8.421875 L 7.625 0 L 7.4375 0 L 1.859375 -6.375 L 1.859375 0 L 1.015625 0 L 1.015625 -8.421875 L 1.203125 -8.421875 L 6.78125 -1.96875 Z M 6.78125 -8.421875 "/></g></g></g><g fill="#00467f" fill-opacity="1"><g transform="translate(355.326341, 84.898408)"><g><path d="M 3.84375 0.15625 C 3.175781 0.15625 2.597656 0.0078125 2.109375 -0.28125 C 1.617188 -0.582031 1.242188 -0.976562 0.984375 -1.46875 C 0.722656 -1.96875 0.59375 -2.507812 0.59375 -3.09375 C 0.59375 -3.664062 0.722656 -4.203125 0.984375 -4.703125 C 1.253906 -5.210938 1.632812 -5.617188 2.125 -5.921875 C 2.613281 -6.234375 3.171875 -6.390625 3.796875 -6.390625 C 4.398438 -6.390625 4.945312 -6.25 5.4375 -5.96875 C 5.9375 -5.6875 6.328125 -5.296875 6.609375 -4.796875 C 6.890625 -4.296875 7.03125 -3.734375 7.03125 -3.109375 L 7.03125 -3.046875 L 1.421875 -3.046875 C 1.429688 -2.566406 1.539062 -2.144531 1.75 -1.78125 C 1.957031 -1.414062 2.238281 -1.128906 2.59375 -0.921875 C 2.957031 -0.722656 3.375 -0.625 3.84375 -0.625 C 4.40625 -0.625 4.859375 -0.75 5.203125 -1 C 5.554688 -1.257812 5.875 -1.613281 6.15625 -2.0625 L 6.8125 -1.71875 C 6.507812 -1.125 6.101562 -0.660156 5.59375 -0.328125 C 5.09375 -0.00390625 4.507812 0.15625 3.84375 0.15625 Z M 6.15625 -3.75 C 6 -4.375 5.707031 -4.84375 5.28125 -5.15625 C 4.863281 -5.46875 4.375 -5.625 3.8125 -5.625 C 3.238281 -5.625 2.753906 -5.46875 2.359375 -5.15625 C 1.960938 -4.84375 1.675781 -4.375 1.5 -3.75 Z M 6.15625 -3.75 "/></g></g></g><g fill="#00467f" fill-opacity="1"><g transform="translate(362.943528, 84.898408)"><g><path d="M 1.578125 -8.640625 L 1.578125 0 L 0.78125 0 L 0.78125 -8.640625 Z M 1.578125 -8.640625 "/></g></g></g><g fill="#00467f" fill-opacity="1"><g transform="translate(365.287277, 84.898408)"><g><path d="M 2.234375 0.171875 C 1.890625 0.171875 1.550781 0.09375 1.21875 -0.0625 C 0.894531 -0.226562 0.625 -0.453125 0.40625 -0.734375 L 0.90625 -1.296875 C 1.320312 -0.835938 1.753906 -0.609375 2.203125 -0.609375 C 2.410156 -0.609375 2.601562 -0.648438 2.78125 -0.734375 C 2.957031 -0.828125 3.097656 -0.953125 3.203125 -1.109375 C 3.304688 -1.273438 3.359375 -1.453125 3.359375 -1.640625 C 3.359375 -1.847656 3.304688 -2.023438 3.203125 -2.171875 C 3.097656 -2.328125 2.925781 -2.46875 2.6875 -2.59375 C 2.195312 -2.863281 1.820312 -3.082031 1.5625 -3.25 C 1.300781 -3.425781 1.085938 -3.632812 0.921875 -3.875 C 0.765625 -4.113281 0.6875 -4.398438 0.6875 -4.734375 C 0.6875 -5.054688 0.757812 -5.34375 0.90625 -5.59375 C 1.0625 -5.84375 1.269531 -6.035156 1.53125 -6.171875 C 1.789062 -6.316406 2.078125 -6.390625 2.390625 -6.390625 C 2.710938 -6.390625 3.007812 -6.316406 3.28125 -6.171875 C 3.5625 -6.035156 3.84375 -5.828125 4.125 -5.546875 L 3.609375 -5.015625 C 3.398438 -5.210938 3.195312 -5.363281 3 -5.46875 C 2.800781 -5.570312 2.582031 -5.625 2.34375 -5.625 C 2.175781 -5.625 2.019531 -5.582031 1.875 -5.5 C 1.738281 -5.425781 1.625 -5.328125 1.53125 -5.203125 C 1.445312 -5.078125 1.40625 -4.9375 1.40625 -4.78125 C 1.40625 -4.570312 1.46875 -4.390625 1.59375 -4.234375 C 1.71875 -4.078125 1.910156 -3.929688 2.171875 -3.796875 C 2.671875 -3.515625 3.046875 -3.285156 3.296875 -3.109375 C 3.554688 -2.929688 3.757812 -2.726562 3.90625 -2.5 C 4.050781 -2.28125 4.125 -2.003906 4.125 -1.671875 C 4.125 -1.347656 4.046875 -1.046875 3.890625 -0.765625 C 3.734375 -0.484375 3.507812 -0.253906 3.21875 -0.078125 C 2.9375 0.0859375 2.609375 0.171875 2.234375 0.171875 Z M 2.234375 0.171875 "/></g></g></g><g fill="#00467f" fill-opacity="1"><g transform="translate(369.71685, 84.898408)"><g><path d="M 3.84375 0.171875 C 3.238281 0.171875 2.6875 0.0234375 2.1875 -0.265625 C 1.6875 -0.566406 1.296875 -0.96875 1.015625 -1.46875 C 0.734375 -1.96875 0.59375 -2.507812 0.59375 -3.09375 C 0.59375 -3.6875 0.734375 -4.234375 1.015625 -4.734375 C 1.296875 -5.242188 1.6875 -5.644531 2.1875 -5.9375 C 2.6875 -6.238281 3.238281 -6.390625 3.84375 -6.390625 C 4.457031 -6.390625 5.007812 -6.238281 5.5 -5.9375 C 6 -5.644531 6.390625 -5.242188 6.671875 -4.734375 C 6.953125 -4.234375 7.09375 -3.6875 7.09375 -3.09375 C 7.09375 -2.507812 6.953125 -1.96875 6.671875 -1.46875 C 6.390625 -0.96875 6 -0.566406 5.5 -0.265625 C 5.007812 0.0234375 4.457031 0.171875 3.84375 0.171875 Z M 3.84375 -0.609375 C 4.300781 -0.609375 4.710938 -0.71875 5.078125 -0.9375 C 5.453125 -1.164062 5.742188 -1.46875 5.953125 -1.84375 C 6.171875 -2.226562 6.28125 -2.644531 6.28125 -3.09375 C 6.28125 -3.539062 6.171875 -3.957031 5.953125 -4.34375 C 5.734375 -4.726562 5.4375 -5.035156 5.0625 -5.265625 C 4.6875 -5.503906 4.28125 -5.625 3.84375 -5.625 C 3.40625 -5.625 3 -5.503906 2.625 -5.265625 C 2.257812 -5.035156 1.96875 -4.726562 1.75 -4.34375 C 1.53125 -3.957031 1.421875 -3.539062 1.421875 -3.09375 C 1.421875 -2.632812 1.523438 -2.21875 1.734375 -1.84375 C 1.941406 -1.46875 2.226562 -1.164062 2.59375 -0.9375 C 2.96875 -0.71875 3.382812 -0.609375 3.84375 -0.609375 Z M 3.84375 -0.609375 "/></g></g></g><g fill="#00467f" fill-opacity="1"><g transform="translate(377.392631, 84.898408)"><g><path d="M 1.734375 -6.234375 L 1.734375 -5.109375 C 2.378906 -5.960938 3.160156 -6.390625 4.078125 -6.390625 C 4.535156 -6.390625 4.9375 -6.28125 5.28125 -6.0625 C 5.632812 -5.851562 5.90625 -5.53125 6.09375 -5.09375 C 6.289062 -4.664062 6.390625 -4.132812 6.390625 -3.5 L 6.390625 0 L 5.578125 0 L 5.578125 -3.390625 C 5.578125 -4.148438 5.445312 -4.71875 5.1875 -5.09375 C 4.925781 -5.476562 4.503906 -5.671875 3.921875 -5.671875 C 3.535156 -5.671875 3.175781 -5.5625 2.84375 -5.34375 C 2.507812 -5.132812 2.238281 -4.828125 2.03125 -4.421875 C 1.832031 -4.023438 1.734375 -3.550781 1.734375 -3 L 1.734375 0 L 0.9375 0 L 0.9375 -6.234375 Z M 1.734375 -6.234375 "/></g></g></g><g fill="#00467f" fill-opacity="1"><g transform="translate(384.587943, 84.898408)"><g><path d="M 3.90625 -8.640625 L 4.78125 -8.640625 L 1.296875 1.15625 L 0.40625 1.15625 Z M 3.90625 -8.640625 "/></g></g></g><g fill="#00467f" fill-opacity="1"><g transform="translate(390.060931, 84.898408)"><g><path d="M 2.09375 -7.609375 L 0.1875 -7.609375 L 0.1875 -8.421875 L 4.8125 -8.421875 L 4.8125 -7.609375 L 2.9375 -7.609375 L 2.9375 0 L 2.09375 0 Z M 2.09375 -7.609375 "/></g></g></g><g fill="#00467f" fill-opacity="1"><g transform="translate(394.583922, 84.898408)"><g><path d="M 3.796875 0.15625 C 3.191406 0.15625 2.644531 0.0078125 2.15625 -0.28125 C 1.675781 -0.582031 1.296875 -0.984375 1.015625 -1.484375 C 0.734375 -1.992188 0.59375 -2.546875 0.59375 -3.140625 C 0.59375 -3.722656 0.734375 -4.257812 1.015625 -4.75 C 1.304688 -5.25 1.695312 -5.644531 2.1875 -5.9375 C 2.6875 -6.238281 3.226562 -6.390625 3.8125 -6.390625 C 4.320312 -6.390625 4.785156 -6.28125 5.203125 -6.0625 C 5.628906 -5.84375 5.992188 -5.519531 6.296875 -5.09375 L 6.296875 -6.234375 L 7.09375 -6.234375 L 7.09375 0 L 6.296875 0 L 6.296875 -1.0625 C 5.960938 -0.65625 5.582031 -0.347656 5.15625 -0.140625 C 4.738281 0.0546875 4.285156 0.15625 3.796875 0.15625 Z M 3.875 -0.578125 C 4.300781 -0.578125 4.707031 -0.679688 5.09375 -0.890625 C 5.476562 -1.097656 5.785156 -1.390625 6.015625 -1.765625 C 6.242188 -2.140625 6.359375 -2.582031 6.359375 -3.09375 C 6.359375 -3.5625 6.25 -3.988281 6.03125 -4.375 C 5.8125 -4.757812 5.515625 -5.0625 5.140625 -5.28125 C 4.765625 -5.507812 4.347656 -5.625 3.890625 -5.625 C 3.421875 -5.625 2.992188 -5.503906 2.609375 -5.265625 C 2.234375 -5.035156 1.941406 -4.726562 1.734375 -4.34375 C 1.523438 -3.96875 1.421875 -3.554688 1.421875 -3.109375 C 1.421875 -2.660156 1.523438 -2.242188 1.734375 -1.859375 C 1.953125 -1.472656 2.25 -1.160156 2.625 -0.921875 C 3 -0.691406 3.414062 -0.578125 3.875 -0.578125 Z M 3.875 -0.578125 "/></g></g></g><g fill="#00467f" fill-opacity="1"><g transform="translate(402.599546, 84.898408)"><g><path d="M 2.234375 0.171875 C 1.890625 0.171875 1.550781 0.09375 1.21875 -0.0625 C 0.894531 -0.226562 0.625 -0.453125 0.40625 -0.734375 L 0.90625 -1.296875 C 1.320312 -0.835938 1.753906 -0.609375 2.203125 -0.609375 C 2.410156 -0.609375 2.601562 -0.648438 2.78125 -0.734375 C 2.957031 -0.828125 3.097656 -0.953125 3.203125 -1.109375 C 3.304688 -1.273438 3.359375 -1.453125 3.359375 -1.640625 C 3.359375 -1.847656 3.304688 -2.023438 3.203125 -2.171875 C 3.097656 -2.328125 2.925781 -2.46875 2.6875 -2.59375 C 2.195312 -2.863281 1.820312 -3.082031 1.5625 -3.25 C 1.300781 -3.425781 1.085938 -3.632812 0.921875 -3.875 C 0.765625 -4.113281 0.6875 -4.398438 0.6875 -4.734375 C 0.6875 -5.054688 0.757812 -5.34375 0.90625 -5.59375 C 1.0625 -5.84375 1.269531 -6.035156 1.53125 -6.171875 C 1.789062 -6.316406 2.078125 -6.390625 2.390625 -6.390625 C 2.710938 -6.390625 3.007812 -6.316406 3.28125 -6.171875 C 3.5625 -6.035156 3.84375 -5.828125 4.125 -5.546875 L 3.609375 -5.015625 C 3.398438 -5.210938 3.195312 -5.363281 3 -5.46875 C 2.800781 -5.570312 2.582031 -5.625 2.34375 -5.625 C 2.175781 -5.625 2.019531 -5.582031 1.875 -5.5 C 1.738281 -5.425781 1.625 -5.328125 1.53125 -5.203125 C 1.445312 -5.078125 1.40625 -4.9375 1.40625 -4.78125 C 1.40625 -4.570312 1.46875 -4.390625 1.59375 -4.234375 C 1.71875 -4.078125 1.910156 -3.929688 2.171875 -3.796875 C 2.671875 -3.515625 3.046875 -3.285156 3.296875 -3.109375 C 3.554688 -2.929688 3.757812 -2.726562 3.90625 -2.5 C 4.050781 -2.28125 4.125 -2.003906 4.125 -1.671875 C 4.125 -1.347656 4.046875 -1.046875 3.890625 -0.765625 C 3.734375 -0.484375 3.507812 -0.253906 3.21875 -0.078125 C 2.9375 0.0859375 2.609375 0.171875 2.234375 0.171875 Z M 2.234375 0.171875 "/></g></g></g><g fill="#00467f" fill-opacity="1"><g transform="translate(407.146421, 84.898408)"><g><path d="M 1.734375 -6.234375 L 1.734375 -5.15625 C 2.015625 -5.5625 2.332031 -5.867188 2.6875 -6.078125 C 3.039062 -6.285156 3.4375 -6.390625 3.875 -6.390625 C 4.351562 -6.390625 4.753906 -6.265625 5.078125 -6.015625 C 5.410156 -5.765625 5.664062 -5.390625 5.84375 -4.890625 C 6.113281 -5.378906 6.445312 -5.75 6.84375 -6 C 7.238281 -6.257812 7.664062 -6.390625 8.125 -6.390625 C 8.5625 -6.390625 8.9375 -6.285156 9.25 -6.078125 C 9.570312 -5.878906 9.816406 -5.578125 9.984375 -5.171875 C 10.160156 -4.765625 10.25 -4.273438 10.25 -3.703125 L 10.25 0 L 9.453125 0 L 9.453125 -3.859375 C 9.453125 -4.410156 9.328125 -4.84375 9.078125 -5.15625 C 8.835938 -5.46875 8.472656 -5.625 7.984375 -5.625 C 7.585938 -5.625 7.238281 -5.515625 6.9375 -5.296875 C 6.632812 -5.078125 6.398438 -4.773438 6.234375 -4.390625 C 6.066406 -4.003906 5.984375 -3.5625 5.984375 -3.0625 L 5.984375 0 L 5.1875 0 L 5.1875 -3.46875 C 5.1875 -4.1875 5.070312 -4.722656 4.84375 -5.078125 C 4.625 -5.441406 4.25 -5.625 3.71875 -5.625 C 3.3125 -5.625 2.957031 -5.515625 2.65625 -5.296875 C 2.363281 -5.078125 2.132812 -4.765625 1.96875 -4.359375 C 1.8125 -3.953125 1.734375 -3.484375 1.734375 -2.953125 L 1.734375 0 L 0.9375 0 L 0.9375 -6.234375 Z M 1.734375 -6.234375 "/></g></g></g><g fill="#00467f" fill-opacity="1"><g transform="translate(418.208921, 84.898408)"><g><path d="M 3.796875 0.15625 C 3.191406 0.15625 2.644531 0.0078125 2.15625 -0.28125 C 1.675781 -0.582031 1.296875 -0.984375 1.015625 -1.484375 C 0.734375 -1.992188 0.59375 -2.546875 0.59375 -3.140625 C 0.59375 -3.722656 0.734375 -4.257812 1.015625 -4.75 C 1.304688 -5.25 1.695312 -5.644531 2.1875 -5.9375 C 2.6875 -6.238281 3.226562 -6.390625 3.8125 -6.390625 C 4.320312 -6.390625 4.785156 -6.28125 5.203125 -6.0625 C 5.628906 -5.84375 5.992188 -5.519531 6.296875 -5.09375 L 6.296875 -6.234375 L 7.09375 -6.234375 L 7.09375 0 L 6.296875 0 L 6.296875 -1.0625 C 5.960938 -0.65625 5.582031 -0.347656 5.15625 -0.140625 C 4.738281 0.0546875 4.285156 0.15625 3.796875 0.15625 Z M 3.875 -0.578125 C 4.300781 -0.578125 4.707031 -0.679688 5.09375 -0.890625 C 5.476562 -1.097656 5.785156 -1.390625 6.015625 -1.765625 C 6.242188 -2.140625 6.359375 -2.582031 6.359375 -3.09375 C 6.359375 -3.5625 6.25 -3.988281 6.03125 -4.375 C 5.8125 -4.757812 5.515625 -5.0625 5.140625 -5.28125 C 4.765625 -5.507812 4.347656 -5.625 3.890625 -5.625 C 3.421875 -5.625 2.992188 -5.503906 2.609375 -5.265625 C 2.234375 -5.035156 1.941406 -4.726562 1.734375 -4.34375 C 1.523438 -3.96875 1.421875 -3.554688 1.421875 -3.109375 C 1.421875 -2.660156 1.523438 -2.242188 1.734375 -1.859375 C 1.953125 -1.472656 2.25 -1.160156 2.625 -0.921875 C 3 -0.691406 3.414062 -0.578125 3.875 -0.578125 Z M 3.875 -0.578125 "/></g></g></g><g fill="#00467f" fill-opacity="1"><g transform="translate(426.224545, 84.898408)"><g><path d="M 1.734375 -6.234375 L 1.734375 -5.109375 C 2.378906 -5.960938 3.160156 -6.390625 4.078125 -6.390625 C 4.535156 -6.390625 4.9375 -6.28125 5.28125 -6.0625 C 5.632812 -5.851562 5.90625 -5.53125 6.09375 -5.09375 C 6.289062 -4.664062 6.390625 -4.132812 6.390625 -3.5 L 6.390625 0 L 5.578125 0 L 5.578125 -3.390625 C 5.578125 -4.148438 5.445312 -4.71875 5.1875 -5.09375 C 4.925781 -5.476562 4.503906 -5.671875 3.921875 -5.671875 C 3.535156 -5.671875 3.175781 -5.5625 2.84375 -5.34375 C 2.507812 -5.132812 2.238281 -4.828125 2.03125 -4.421875 C 1.832031 -4.023438 1.734375 -3.550781 1.734375 -3 L 1.734375 0 L 0.9375 0 L 0.9375 -6.234375 Z M 1.734375 -6.234375 "/></g></g></g><g fill="#00467f" fill-opacity="1"><g transform="translate(318.787925, 66.209984)"><g><path d="M 14.203125 0.546875 C 11.703125 0.546875 9.507812 0.0078125 7.625 -1.0625 C 5.75 -2.144531 4.304688 -3.609375 3.296875 -5.453125 C 2.296875 -7.304688 1.796875 -9.367188 1.796875 -11.640625 C 1.796875 -13.878906 2.328125 -15.90625 3.390625 -17.71875 C 4.460938 -19.539062 5.941406 -20.972656 7.828125 -22.015625 C 9.722656 -23.066406 11.847656 -23.59375 14.203125 -23.59375 C 16.296875 -23.59375 18.195312 -23.179688 19.90625 -22.359375 C 21.613281 -21.535156 23.019531 -20.332031 24.125 -18.75 L 22.296875 -17.375 C 21.316406 -18.675781 20.140625 -19.660156 18.765625 -20.328125 C 17.390625 -21.003906 15.878906 -21.34375 14.234375 -21.34375 C 12.410156 -21.34375 10.734375 -20.921875 9.203125 -20.078125 C 7.679688 -19.234375 6.46875 -18.054688 5.5625 -16.546875 C 4.65625 -15.046875 4.203125 -13.34375 4.203125 -11.4375 C 4.203125 -9.5625 4.644531 -7.875 5.53125 -6.375 C 6.414062 -4.882812 7.628906 -3.707031 9.171875 -2.84375 C 10.722656 -1.988281 12.453125 -1.5625 14.359375 -1.5625 C 15.960938 -1.5625 17.441406 -1.882812 18.796875 -2.53125 C 20.148438 -3.175781 21.363281 -4.128906 22.4375 -5.390625 L 24.265625 -4 C 23.085938 -2.507812 21.640625 -1.378906 19.921875 -0.609375 C 18.203125 0.160156 16.296875 0.546875 14.203125 0.546875 Z M 14.203125 0.546875 "/></g></g></g><g fill="#00467f" fill-opacity="1"><g transform="translate(345.188321, 66.209984)"><g><path d="M 10.515625 0.453125 C 8.847656 0.453125 7.332031 0.0507812 5.96875 -0.75 C 4.613281 -1.550781 3.550781 -2.632812 2.78125 -4 C 2.019531 -5.375 1.640625 -6.859375 1.640625 -8.453125 C 1.640625 -10.054688 2.019531 -11.550781 2.78125 -12.9375 C 3.550781 -14.332031 4.613281 -15.4375 5.96875 -16.25 C 7.332031 -17.0625 8.847656 -17.46875 10.515625 -17.46875 C 12.179688 -17.46875 13.691406 -17.0625 15.046875 -16.25 C 16.398438 -15.4375 17.460938 -14.332031 18.234375 -12.9375 C 19.003906 -11.550781 19.390625 -10.054688 19.390625 -8.453125 C 19.390625 -6.859375 19.003906 -5.375 18.234375 -4 C 17.460938 -2.632812 16.398438 -1.550781 15.046875 -0.75 C 13.691406 0.0507812 12.179688 0.453125 10.515625 0.453125 Z M 10.515625 -1.671875 C 11.753906 -1.671875 12.878906 -1.972656 13.890625 -2.578125 C 14.910156 -3.191406 15.707031 -4.015625 16.28125 -5.046875 C 16.851562 -6.085938 17.140625 -7.210938 17.140625 -8.421875 C 17.140625 -9.660156 16.835938 -10.804688 16.234375 -11.859375 C 15.640625 -12.921875 14.835938 -13.765625 13.828125 -14.390625 C 12.816406 -15.023438 11.710938 -15.34375 10.515625 -15.34375 C 9.316406 -15.34375 8.207031 -15.023438 7.1875 -14.390625 C 6.175781 -13.765625 5.367188 -12.921875 4.765625 -11.859375 C 4.171875 -10.804688 3.875 -9.660156 3.875 -8.421875 C 3.875 -7.179688 4.160156 -6.050781 4.734375 -5.03125 C 5.316406 -4.007812 6.109375 -3.191406 7.109375 -2.578125 C 8.117188 -1.972656 9.253906 -1.671875 10.515625 -1.671875 Z M 10.515625 -1.671875 "/></g></g></g><g fill="#00467f" fill-opacity="1"><g transform="translate(367.135467, 66.209984)"><g><path d="M 4.75 -17.015625 L 4.75 -13.96875 C 6.519531 -16.300781 8.644531 -17.46875 11.125 -17.46875 C 12.382812 -17.46875 13.488281 -17.171875 14.4375 -16.578125 C 15.382812 -15.992188 16.117188 -15.109375 16.640625 -13.921875 C 17.171875 -12.734375 17.4375 -11.273438 17.4375 -9.546875 L 17.4375 0 L 15.25 0 L 15.25 -9.265625 C 15.25 -11.335938 14.890625 -12.890625 14.171875 -13.921875 C 13.460938 -14.960938 12.304688 -15.484375 10.703125 -15.484375 C 9.660156 -15.484375 8.679688 -15.191406 7.765625 -14.609375 C 6.859375 -14.035156 6.128906 -13.195312 5.578125 -12.09375 C 5.023438 -11 4.75 -9.691406 4.75 -8.171875 L 4.75 0 L 2.5625 0 L 2.5625 -17.015625 Z M 4.75 -17.015625 "/></g></g></g><g fill="#00467f" fill-opacity="1"><g transform="translate(387.769015, 66.209984)"><g><path d="M 4.75 -17.015625 L 4.75 -13.96875 C 6.519531 -16.300781 8.644531 -17.46875 11.125 -17.46875 C 12.382812 -17.46875 13.488281 -17.171875 14.4375 -16.578125 C 15.382812 -15.992188 16.117188 -15.109375 16.640625 -13.921875 C 17.171875 -12.734375 17.4375 -11.273438 17.4375 -9.546875 L 17.4375 0 L 15.25 0 L 15.25 -9.265625 C 15.25 -11.335938 14.890625 -12.890625 14.171875 -13.921875 C 13.460938 -14.960938 12.304688 -15.484375 10.703125 -15.484375 C 9.660156 -15.484375 8.679688 -15.191406 7.765625 -14.609375 C 6.859375 -14.035156 6.128906 -13.195312 5.578125 -12.09375 C 5.023438 -11 4.75 -9.691406 4.75 -8.171875 L 4.75 0 L 2.5625 0 L 2.5625 -17.015625 Z M 4.75 -17.015625 "/></g></g></g><g fill="#00467f" fill-opacity="1"><g transform="translate(408.402562, 66.209984)"><g><path d="M 10.515625 0.421875 C 8.671875 0.421875 7.082031 0.0195312 5.75 -0.78125 C 4.414062 -1.582031 3.394531 -2.660156 2.6875 -4.015625 C 1.988281 -5.378906 1.640625 -6.859375 1.640625 -8.453125 C 1.640625 -10.015625 2 -11.484375 2.71875 -12.859375 C 3.445312 -14.242188 4.476562 -15.359375 5.8125 -16.203125 C 7.144531 -17.046875 8.671875 -17.46875 10.390625 -17.46875 C 12.023438 -17.46875 13.515625 -17.082031 14.859375 -16.3125 C 16.210938 -15.539062 17.273438 -14.472656 18.046875 -13.109375 C 18.816406 -11.742188 19.203125 -10.207031 19.203125 -8.5 L 19.203125 -8.328125 L 3.875 -8.328125 C 3.914062 -7.023438 4.21875 -5.867188 4.78125 -4.859375 C 5.351562 -3.859375 6.128906 -3.082031 7.109375 -2.53125 C 8.097656 -1.976562 9.234375 -1.703125 10.515625 -1.703125 C 12.023438 -1.703125 13.257812 -2.050781 14.21875 -2.75 C 15.1875 -3.457031 16.046875 -4.421875 16.796875 -5.640625 L 18.625 -4.671875 C 17.789062 -3.078125 16.679688 -1.828125 15.296875 -0.921875 C 13.921875 -0.0234375 12.328125 0.421875 10.515625 0.421875 Z M 16.796875 -10.25 C 16.367188 -11.9375 15.582031 -13.207031 14.4375 -14.0625 C 13.289062 -14.914062 11.953125 -15.34375 10.421875 -15.34375 C 8.859375 -15.34375 7.535156 -14.921875 6.453125 -14.078125 C 5.378906 -13.234375 4.597656 -11.957031 4.109375 -10.25 Z M 16.796875 -10.25 "/></g></g></g><g fill="#00467f" fill-opacity="1"><g transform="translate(429.869034, 66.209984)"><g><path d="M 10.640625 0.453125 C 8.910156 0.453125 7.359375 0.0546875 5.984375 -0.734375 C 4.617188 -1.523438 3.550781 -2.601562 2.78125 -3.96875 C 2.019531 -5.34375 1.640625 -6.863281 1.640625 -8.53125 C 1.640625 -10.21875 2.023438 -11.738281 2.796875 -13.09375 C 3.578125 -14.445312 4.660156 -15.515625 6.046875 -16.296875 C 7.441406 -17.078125 8.992188 -17.46875 10.703125 -17.46875 C 12.328125 -17.46875 13.804688 -17.140625 15.140625 -16.484375 C 16.472656 -15.835938 17.546875 -14.9375 18.359375 -13.78125 L 16.765625 -12.40625 C 15.953125 -13.382812 15.046875 -14.117188 14.046875 -14.609375 C 13.054688 -15.097656 11.910156 -15.34375 10.609375 -15.34375 C 9.328125 -15.34375 8.175781 -15.046875 7.15625 -14.453125 C 6.144531 -13.859375 5.34375 -13.039062 4.75 -12 C 4.164062 -10.96875 3.875 -9.8125 3.875 -8.53125 C 3.875 -7.195312 4.160156 -6.003906 4.734375 -4.953125 C 5.316406 -3.910156 6.125 -3.101562 7.15625 -2.53125 C 8.195312 -1.957031 9.359375 -1.671875 10.640625 -1.671875 C 13.117188 -1.671875 15.160156 -2.628906 16.765625 -4.546875 L 18.390625 -3.265625 C 17.472656 -2.085938 16.359375 -1.171875 15.046875 -0.515625 C 13.734375 0.128906 12.265625 0.453125 10.640625 0.453125 Z M 10.640625 0.453125 "/></g></g></g><g fill="#00467f" fill-opacity="1"><g transform="translate(450.470504, 66.209984)"><g><path d="M 4.390625 -15.09375 L 1.375 -15.09375 L 1.375 -17.015625 L 4.390625 -17.015625 L 4.390625 -23.359375 L 6.5625 -23.359375 L 6.5625 -17.015625 L 10.0625 -17.015625 L 10.0625 -15.09375 L 6.5625 -15.09375 L 6.5625 0 L 4.390625 0 Z M 4.390625 -15.09375 "/></g></g></g></svg>